<mxfile host="app.diagrams.net" modified="2024-04-12T03:11:22.852Z" agent="Mozilla/5.0 (Windows NT 10.0; Win64; x64) AppleWebKit/537.36 (KHTML, like Gecko) Chrome/123.0.0.0 Safari/537.36 Edg/123.0.0.0" etag="0uzKHV1pq-CRKkMtWJ1N" version="24.2.3" type="device" pages="3">
  <diagram name="페이지-1" id="b-U6qXg2i5wOeNDfJaWZ">
    <mxGraphModel dx="1663" dy="981" grid="0" gridSize="10" guides="1" tooltips="1" connect="1" arrows="1" fold="1" page="0" pageScale="1" pageWidth="827" pageHeight="1169" math="0" shadow="0">
      <root>
        <mxCell id="0" />
        <mxCell id="1" parent="0" />
        <mxCell id="tQsMk9vaSfYmGHrOj1_D-1" value="Entity" style="whiteSpace=wrap;html=1;align=center;" vertex="1" parent="1">
          <mxGeometry x="-255" y="-114" width="179" height="79" as="geometry" />
        </mxCell>
        <mxCell id="tQsMk9vaSfYmGHrOj1_D-2" value="객체: 사각형으로 표시" style="text;html=1;align=center;verticalAlign=middle;resizable=0;points=[];autosize=1;strokeColor=#6c8ebf;fillColor=#dae8fc;fontSize=16;fontStyle=1" vertex="1" parent="1">
          <mxGeometry x="-255" y="-158" width="175" height="31" as="geometry" />
        </mxCell>
        <mxCell id="tQsMk9vaSfYmGHrOj1_D-5" value="Entity" style="shape=ext;margin=3;double=1;whiteSpace=wrap;html=1;align=center;" vertex="1" parent="1">
          <mxGeometry x="-255" y="34" width="176" height="97" as="geometry" />
        </mxCell>
        <mxCell id="tQsMk9vaSfYmGHrOj1_D-6" value="강한 개체" style="text;html=1;align=center;verticalAlign=middle;resizable=0;points=[];autosize=1;strokeColor=none;fillColor=none;fontSize=16;" vertex="1" parent="1">
          <mxGeometry x="-20" y="-90" width="86" height="31" as="geometry" />
        </mxCell>
        <mxCell id="tQsMk9vaSfYmGHrOj1_D-7" value="약한 개체: 다른 개체의 도움이 필요한 개체" style="text;html=1;align=center;verticalAlign=middle;resizable=0;points=[];autosize=1;strokeColor=none;fillColor=none;fontSize=16;" vertex="1" parent="1">
          <mxGeometry x="-20" y="67" width="321" height="31" as="geometry" />
        </mxCell>
        <mxCell id="tQsMk9vaSfYmGHrOj1_D-8" value="Attribute" style="ellipse;whiteSpace=wrap;html=1;align=center;" vertex="1" parent="1">
          <mxGeometry x="-261.5" y="253" width="188" height="93" as="geometry" />
        </mxCell>
        <mxCell id="tQsMk9vaSfYmGHrOj1_D-9" value="&lt;b&gt;속성: 객체가 가진 성질 &amp;gt; 타원형으로 표시&lt;/b&gt;" style="text;html=1;align=center;verticalAlign=middle;resizable=0;points=[];autosize=1;strokeColor=#6c8ebf;fillColor=#dae8fc;fontSize=16;" vertex="1" parent="1">
          <mxGeometry x="-261.5" y="194" width="315" height="31" as="geometry" />
        </mxCell>
        <mxCell id="tQsMk9vaSfYmGHrOj1_D-11" value="일반적인 속성" style="text;html=1;align=center;verticalAlign=middle;resizable=0;points=[];autosize=1;strokeColor=none;fillColor=none;fontSize=16;" vertex="1" parent="1">
          <mxGeometry x="-32" y="284" width="118" height="31" as="geometry" />
        </mxCell>
        <mxCell id="tQsMk9vaSfYmGHrOj1_D-12" value="키 속성, 밑줄이 그여짐. 개체를 유일하게 식별" style="text;html=1;align=center;verticalAlign=middle;resizable=0;points=[];autosize=1;strokeColor=none;fillColor=none;fontSize=16;" vertex="1" parent="1">
          <mxGeometry x="-32" y="428" width="342" height="31" as="geometry" />
        </mxCell>
        <mxCell id="tQsMk9vaSfYmGHrOj1_D-14" value="Attribute" style="ellipse;whiteSpace=wrap;html=1;align=center;fontStyle=4;" vertex="1" parent="1">
          <mxGeometry x="-266" y="393" width="197" height="106" as="geometry" />
        </mxCell>
        <mxCell id="tQsMk9vaSfYmGHrOj1_D-15" value="&lt;span style=&quot;border-bottom: 1px dotted&quot;&gt;Attribute&lt;/span&gt;" style="ellipse;whiteSpace=wrap;html=1;align=center;" vertex="1" parent="1">
          <mxGeometry x="-268.75" y="567" width="202.5" height="100" as="geometry" />
        </mxCell>
        <mxCell id="tQsMk9vaSfYmGHrOj1_D-16" value="약한 개체의 식별자, 점선 밑줄" style="text;html=1;align=center;verticalAlign=middle;resizable=0;points=[];autosize=1;strokeColor=none;fillColor=none;fontSize=16;" vertex="1" parent="1">
          <mxGeometry x="-20" y="601.5" width="232" height="31" as="geometry" />
        </mxCell>
        <mxCell id="tQsMk9vaSfYmGHrOj1_D-17" value="Attribute" style="ellipse;whiteSpace=wrap;html=1;align=center;dashed=1;" vertex="1" parent="1">
          <mxGeometry x="-266" y="743" width="202.37" height="109" as="geometry" />
        </mxCell>
        <mxCell id="tQsMk9vaSfYmGHrOj1_D-19" value="유도속성: 다른 속성으로 유가가 가능한 속성&lt;div&gt;- 나이(유도속성)는 출생연도(일반속성)에서 유추할 수 있다.&amp;nbsp;&lt;/div&gt;" style="text;html=1;align=center;verticalAlign=middle;resizable=0;points=[];autosize=1;strokeColor=none;fillColor=none;fontSize=16;" vertex="1" parent="1">
          <mxGeometry x="-20" y="772.5" width="444" height="50" as="geometry" />
        </mxCell>
        <mxCell id="tQsMk9vaSfYmGHrOj1_D-20" value="Attribute" style="ellipse;shape=doubleEllipse;margin=3;whiteSpace=wrap;html=1;align=center;" vertex="1" parent="1">
          <mxGeometry x="-275.75" y="955" width="216.5" height="122" as="geometry" />
        </mxCell>
        <mxCell id="tQsMk9vaSfYmGHrOj1_D-21" value="다중값 속성: 이중타원, 여러 개의 값을 갖는 속성&lt;div&gt;- 취미 속성은 (수영, 독서, 애니메이션) 등 여러 값을 가질 수 있음&lt;/div&gt;" style="text;html=1;align=center;verticalAlign=middle;resizable=0;points=[];autosize=1;strokeColor=none;fillColor=none;fontSize=16;" vertex="1" parent="1">
          <mxGeometry x="-36" y="991" width="476" height="50" as="geometry" />
        </mxCell>
        <mxCell id="tQsMk9vaSfYmGHrOj1_D-22" value="Relationship" style="shape=rhombus;perimeter=rhombusPerimeter;whiteSpace=wrap;html=1;align=center;" vertex="1" parent="1">
          <mxGeometry x="-270.75" y="1210" width="203.75" height="112" as="geometry" />
        </mxCell>
        <mxCell id="tQsMk9vaSfYmGHrOj1_D-23" value="&lt;b&gt;관계&lt;/b&gt;" style="text;html=1;align=center;verticalAlign=middle;resizable=0;points=[];autosize=1;strokeColor=#6c8ebf;fillColor=#dae8fc;fontSize=16;" vertex="1" parent="1">
          <mxGeometry x="-196" y="1145" width="50" height="31" as="geometry" />
        </mxCell>
        <mxCell id="tQsMk9vaSfYmGHrOj1_D-24" value="개체와 개체 사이의 연관성을 나타내는 개념" style="text;html=1;align=center;verticalAlign=middle;resizable=0;points=[];autosize=1;strokeColor=none;fillColor=none;fontSize=16;" vertex="1" parent="1">
          <mxGeometry x="-10" y="1250.5" width="328" height="31" as="geometry" />
        </mxCell>
        <mxCell id="tQsMk9vaSfYmGHrOj1_D-25" value="소속" style="shape=rhombus;perimeter=rhombusPerimeter;whiteSpace=wrap;html=1;align=center;" vertex="1" parent="1">
          <mxGeometry x="-273.88" y="1449" width="206.88" height="101" as="geometry" />
        </mxCell>
        <mxCell id="tQsMk9vaSfYmGHrOj1_D-26" value="학과" style="whiteSpace=wrap;html=1;align=center;" vertex="1" parent="1">
          <mxGeometry x="32" y="1458.75" width="159" height="81.5" as="geometry" />
        </mxCell>
        <mxCell id="tQsMk9vaSfYmGHrOj1_D-32" value="" style="line;strokeWidth=1;rotatable=0;dashed=0;labelPosition=right;align=left;verticalAlign=middle;spacingTop=0;spacingLeft=6;points=[];portConstraint=eastwest;" vertex="1" parent="1">
          <mxGeometry x="-67" y="1494.5" width="98" height="10" as="geometry" />
        </mxCell>
        <mxCell id="tQsMk9vaSfYmGHrOj1_D-33" value="학생" style="whiteSpace=wrap;html=1;align=center;" vertex="1" parent="1">
          <mxGeometry x="-527" y="1462" width="159" height="81.5" as="geometry" />
        </mxCell>
        <mxCell id="tQsMk9vaSfYmGHrOj1_D-34" value="" style="line;strokeWidth=1;rotatable=0;dashed=0;labelPosition=right;align=left;verticalAlign=middle;spacingTop=0;spacingLeft=6;points=[];portConstraint=eastwest;" vertex="1" parent="1">
          <mxGeometry x="-368" y="1494.5" width="94.12" height="10" as="geometry" />
        </mxCell>
        <mxCell id="tQsMk9vaSfYmGHrOj1_D-35" value="이진관계: 두 개체가 관계를 맺는 경우" style="text;html=1;align=center;verticalAlign=middle;resizable=0;points=[];autosize=1;strokeColor=#6c8ebf;fillColor=#dae8fc;fontSize=16;fontStyle=1" vertex="1" parent="1">
          <mxGeometry x="-313.5" y="1394" width="285" height="31" as="geometry" />
        </mxCell>
        <mxCell id="tQsMk9vaSfYmGHrOj1_D-36" value="수행" style="shape=rhombus;perimeter=rhombusPerimeter;whiteSpace=wrap;html=1;align=center;" vertex="1" parent="1">
          <mxGeometry x="-278.88" y="1668" width="206.88" height="101" as="geometry" />
        </mxCell>
        <mxCell id="tQsMk9vaSfYmGHrOj1_D-37" value="프로젝트" style="whiteSpace=wrap;html=1;align=center;" vertex="1" parent="1">
          <mxGeometry x="27" y="1678.75" width="159" height="81.5" as="geometry" />
        </mxCell>
        <mxCell id="tQsMk9vaSfYmGHrOj1_D-38" value="" style="line;strokeWidth=1;rotatable=0;dashed=0;labelPosition=right;align=left;verticalAlign=middle;spacingTop=0;spacingLeft=6;points=[];portConstraint=eastwest;" vertex="1" parent="1">
          <mxGeometry x="-72" y="1713.5" width="98" height="10" as="geometry" />
        </mxCell>
        <mxCell id="tQsMk9vaSfYmGHrOj1_D-39" value="직원" style="whiteSpace=wrap;html=1;align=center;" vertex="1" parent="1">
          <mxGeometry x="-532" y="1681" width="159" height="81.5" as="geometry" />
        </mxCell>
        <mxCell id="tQsMk9vaSfYmGHrOj1_D-40" value="" style="line;strokeWidth=1;rotatable=0;dashed=0;labelPosition=right;align=left;verticalAlign=middle;spacingTop=0;spacingLeft=6;points=[];portConstraint=eastwest;" vertex="1" parent="1">
          <mxGeometry x="-373" y="1713.5" width="94.12" height="10" as="geometry" />
        </mxCell>
        <mxCell id="tQsMk9vaSfYmGHrOj1_D-41" value="삼진관계: 세 개체가 관계를 맺는 경우" style="text;html=1;align=center;verticalAlign=middle;resizable=0;points=[];autosize=1;strokeColor=#6c8ebf;fillColor=#dae8fc;fontSize=16;fontStyle=1" vertex="1" parent="1">
          <mxGeometry x="-307.32" y="1620" width="285" height="31" as="geometry" />
        </mxCell>
        <mxCell id="tQsMk9vaSfYmGHrOj1_D-42" value="부품" style="whiteSpace=wrap;html=1;align=center;" vertex="1" parent="1">
          <mxGeometry x="-253" y="1826" width="159" height="81.5" as="geometry" />
        </mxCell>
        <mxCell id="tQsMk9vaSfYmGHrOj1_D-44" value="" style="endArrow=none;html=1;rounded=0;fontSize=12;startSize=8;endSize=8;curved=1;entryX=0.5;entryY=0;entryDx=0;entryDy=0;exitX=0.5;exitY=1;exitDx=0;exitDy=0;" edge="1" parent="1" source="tQsMk9vaSfYmGHrOj1_D-36" target="tQsMk9vaSfYmGHrOj1_D-42">
          <mxGeometry relative="1" as="geometry">
            <mxPoint x="-211" y="1703" as="sourcePoint" />
            <mxPoint x="-51" y="1703" as="targetPoint" />
          </mxGeometry>
        </mxCell>
        <mxCell id="tQsMk9vaSfYmGHrOj1_D-47" value="일대일 관계: 좌측 타입의 개체가, 우측 타입의 개체와 일대일 대응&lt;div&gt;- 한 명의 학생이 한대 컴퓨터만 사용하는 경우&lt;/div&gt;" style="text;html=1;align=center;verticalAlign=middle;resizable=0;points=[];autosize=1;strokeColor=#6c8ebf;fillColor=#dae8fc;fontSize=16;fontStyle=1" vertex="1" parent="1">
          <mxGeometry x="-419.38" y="1981" width="483" height="50" as="geometry" />
        </mxCell>
        <mxCell id="tQsMk9vaSfYmGHrOj1_D-49" value="사용" style="shape=rhombus;perimeter=rhombusPerimeter;whiteSpace=wrap;html=1;align=center;" vertex="1" parent="1">
          <mxGeometry x="-281.32" y="2055" width="206.88" height="101" as="geometry" />
        </mxCell>
        <mxCell id="tQsMk9vaSfYmGHrOj1_D-50" value="컴퓨터" style="whiteSpace=wrap;html=1;align=center;" vertex="1" parent="1">
          <mxGeometry x="24.56" y="2064.75" width="159" height="81.5" as="geometry" />
        </mxCell>
        <mxCell id="tQsMk9vaSfYmGHrOj1_D-52" value="학생" style="whiteSpace=wrap;html=1;align=center;" vertex="1" parent="1">
          <mxGeometry x="-534.44" y="2068" width="159" height="81.5" as="geometry" />
        </mxCell>
        <mxCell id="tQsMk9vaSfYmGHrOj1_D-54" value="" style="endArrow=none;html=1;rounded=0;fontSize=12;startSize=8;endSize=8;curved=1;" edge="1" parent="1">
          <mxGeometry relative="1" as="geometry">
            <mxPoint x="-76" y="2105.16" as="sourcePoint" />
            <mxPoint x="25" y="2105" as="targetPoint" />
          </mxGeometry>
        </mxCell>
        <mxCell id="tQsMk9vaSfYmGHrOj1_D-55" value="1" style="resizable=0;html=1;whiteSpace=wrap;align=right;verticalAlign=bottom;" connectable="0" vertex="1" parent="tQsMk9vaSfYmGHrOj1_D-54">
          <mxGeometry x="1" relative="1" as="geometry" />
        </mxCell>
        <mxCell id="tQsMk9vaSfYmGHrOj1_D-57" value="" style="endArrow=none;html=1;rounded=0;fontSize=12;startSize=8;endSize=8;curved=1;entryX=0;entryY=0.5;entryDx=0;entryDy=0;" edge="1" parent="1" target="tQsMk9vaSfYmGHrOj1_D-49">
          <mxGeometry relative="1" as="geometry">
            <mxPoint x="-375.44" y="2108.41" as="sourcePoint" />
            <mxPoint x="-283" y="2108" as="targetPoint" />
          </mxGeometry>
        </mxCell>
        <mxCell id="tQsMk9vaSfYmGHrOj1_D-58" value="1" style="resizable=0;html=1;whiteSpace=wrap;align=right;verticalAlign=bottom;" connectable="0" vertex="1" parent="tQsMk9vaSfYmGHrOj1_D-57">
          <mxGeometry x="1" relative="1" as="geometry">
            <mxPoint x="-83" y="1" as="offset" />
          </mxGeometry>
        </mxCell>
        <mxCell id="tQsMk9vaSfYmGHrOj1_D-67" value="일대다 관계(N:1, 1:N) 관계: 가장 많이 볼 수 있는 관계&lt;div&gt;하나의 개체가 다른 개체와 여러 개의 관계를 맺는 경우&lt;/div&gt;" style="text;html=1;align=center;verticalAlign=middle;resizable=0;points=[];autosize=1;strokeColor=#6c8ebf;fillColor=#dae8fc;fontSize=16;fontStyle=1" vertex="1" parent="1">
          <mxGeometry x="-373.38" y="2214" width="406" height="50" as="geometry" />
        </mxCell>
        <mxCell id="tQsMk9vaSfYmGHrOj1_D-68" value="사용" style="shape=rhombus;perimeter=rhombusPerimeter;whiteSpace=wrap;html=1;align=center;" vertex="1" parent="1">
          <mxGeometry x="-274.32" y="2288" width="206.88" height="101" as="geometry" />
        </mxCell>
        <mxCell id="tQsMk9vaSfYmGHrOj1_D-69" value="컴퓨터" style="whiteSpace=wrap;html=1;align=center;" vertex="1" parent="1">
          <mxGeometry x="31.560000000000002" y="2297.75" width="159" height="81.5" as="geometry" />
        </mxCell>
        <mxCell id="tQsMk9vaSfYmGHrOj1_D-70" value="학생" style="whiteSpace=wrap;html=1;align=center;" vertex="1" parent="1">
          <mxGeometry x="-527.44" y="2301" width="159" height="81.5" as="geometry" />
        </mxCell>
        <mxCell id="tQsMk9vaSfYmGHrOj1_D-71" value="" style="endArrow=none;html=1;rounded=0;fontSize=12;startSize=8;endSize=8;curved=1;" edge="1" parent="1">
          <mxGeometry relative="1" as="geometry">
            <mxPoint x="-69" y="2338.16" as="sourcePoint" />
            <mxPoint x="32" y="2338" as="targetPoint" />
          </mxGeometry>
        </mxCell>
        <mxCell id="tQsMk9vaSfYmGHrOj1_D-72" value="1" style="resizable=0;html=1;whiteSpace=wrap;align=right;verticalAlign=bottom;" connectable="0" vertex="1" parent="tQsMk9vaSfYmGHrOj1_D-71">
          <mxGeometry x="1" relative="1" as="geometry" />
        </mxCell>
        <mxCell id="tQsMk9vaSfYmGHrOj1_D-75" value="" style="endArrow=none;html=1;rounded=0;fontSize=12;startSize=8;endSize=8;curved=1;" edge="1" parent="1">
          <mxGeometry relative="1" as="geometry">
            <mxPoint x="-368.44" y="2338.21" as="sourcePoint" />
            <mxPoint x="-271" y="2338" as="targetPoint" />
          </mxGeometry>
        </mxCell>
        <mxCell id="tQsMk9vaSfYmGHrOj1_D-76" value="N" style="resizable=0;html=1;whiteSpace=wrap;align=right;verticalAlign=bottom;" connectable="0" vertex="1" parent="tQsMk9vaSfYmGHrOj1_D-75">
          <mxGeometry x="1" relative="1" as="geometry">
            <mxPoint x="-84" as="offset" />
          </mxGeometry>
        </mxCell>
        <mxCell id="tQsMk9vaSfYmGHrOj1_D-77" value="다대다관계(N:M 관계) : 객체가 서로 복합적인 관계를 맺는 경우&lt;br&gt;&lt;div&gt;- 여러 명의 학생이 여러 강좌를 수강할 수 있는 관계&lt;/div&gt;" style="text;html=1;align=center;verticalAlign=middle;resizable=0;points=[];autosize=1;strokeColor=#6c8ebf;fillColor=#dae8fc;fontSize=16;fontStyle=1" vertex="1" parent="1">
          <mxGeometry x="-406.38" y="2466" width="466" height="50" as="geometry" />
        </mxCell>
        <mxCell id="tQsMk9vaSfYmGHrOj1_D-78" value="수강" style="shape=rhombus;perimeter=rhombusPerimeter;whiteSpace=wrap;html=1;align=center;" vertex="1" parent="1">
          <mxGeometry x="-277.32" y="2540" width="206.88" height="101" as="geometry" />
        </mxCell>
        <mxCell id="tQsMk9vaSfYmGHrOj1_D-79" value="강좌" style="whiteSpace=wrap;html=1;align=center;" vertex="1" parent="1">
          <mxGeometry x="28.560000000000002" y="2549.75" width="159" height="81.5" as="geometry" />
        </mxCell>
        <mxCell id="tQsMk9vaSfYmGHrOj1_D-80" value="학생" style="whiteSpace=wrap;html=1;align=center;" vertex="1" parent="1">
          <mxGeometry x="-530.44" y="2553" width="159" height="81.5" as="geometry" />
        </mxCell>
        <mxCell id="tQsMk9vaSfYmGHrOj1_D-83" value="" style="endArrow=none;html=1;rounded=0;fontSize=12;startSize=8;endSize=8;curved=1;" edge="1" parent="1">
          <mxGeometry relative="1" as="geometry">
            <mxPoint x="-371.44" y="2590.21" as="sourcePoint" />
            <mxPoint x="-274" y="2590" as="targetPoint" />
          </mxGeometry>
        </mxCell>
        <mxCell id="tQsMk9vaSfYmGHrOj1_D-84" value="N" style="resizable=0;html=1;whiteSpace=wrap;align=right;verticalAlign=bottom;" connectable="0" vertex="1" parent="tQsMk9vaSfYmGHrOj1_D-83">
          <mxGeometry x="1" relative="1" as="geometry">
            <mxPoint x="-84" as="offset" />
          </mxGeometry>
        </mxCell>
        <mxCell id="tQsMk9vaSfYmGHrOj1_D-85" value="" style="endArrow=none;html=1;rounded=0;fontSize=12;startSize=8;endSize=8;curved=1;" edge="1" parent="1">
          <mxGeometry relative="1" as="geometry">
            <mxPoint x="-70.44" y="2590.16" as="sourcePoint" />
            <mxPoint x="27" y="2592" as="targetPoint" />
          </mxGeometry>
        </mxCell>
        <mxCell id="tQsMk9vaSfYmGHrOj1_D-86" value="M" style="resizable=0;html=1;whiteSpace=wrap;align=left;verticalAlign=bottom;" connectable="0" vertex="1" parent="tQsMk9vaSfYmGHrOj1_D-85">
          <mxGeometry x="-1" relative="1" as="geometry">
            <mxPoint x="82" as="offset" />
          </mxGeometry>
        </mxCell>
      </root>
    </mxGraphModel>
  </diagram>
  <diagram id="UtSzVi84CiKDTf7R92HQ" name="매핑(사상)">
    <mxGraphModel dx="1992" dy="1203" grid="0" gridSize="10" guides="1" tooltips="1" connect="1" arrows="1" fold="1" page="0" pageScale="1" pageWidth="827" pageHeight="1169" math="0" shadow="0">
      <root>
        <mxCell id="0" />
        <mxCell id="1" parent="0" />
        <mxCell id="4lZ2Bp2uGJrG-R5DajwO-6" value="" style="edgeStyle=none;curved=1;rounded=0;orthogonalLoop=1;jettySize=auto;html=1;fontSize=12;startSize=8;endSize=8;strokeColor=default;endArrow=none;endFill=0;" edge="1" parent="1" source="4lZ2Bp2uGJrG-R5DajwO-3" target="4lZ2Bp2uGJrG-R5DajwO-4">
          <mxGeometry relative="1" as="geometry" />
        </mxCell>
        <mxCell id="4lZ2Bp2uGJrG-R5DajwO-3" value="직원" style="whiteSpace=wrap;html=1;align=center;" vertex="1" parent="1">
          <mxGeometry x="93" y="68" width="193" height="99" as="geometry" />
        </mxCell>
        <mxCell id="4lZ2Bp2uGJrG-R5DajwO-4" value="&lt;u&gt;직원번호&lt;/u&gt;" style="ellipse;whiteSpace=wrap;html=1;align=center;" vertex="1" parent="1">
          <mxGeometry x="-259" y="71" width="193" height="96" as="geometry" />
        </mxCell>
        <mxCell id="4lZ2Bp2uGJrG-R5DajwO-7" value="이름" style="ellipse;whiteSpace=wrap;html=1;align=center;" vertex="1" parent="1">
          <mxGeometry x="-259" y="231" width="203" height="96" as="geometry" />
        </mxCell>
        <mxCell id="4lZ2Bp2uGJrG-R5DajwO-8" value="" style="edgeStyle=none;curved=1;rounded=0;orthogonalLoop=1;jettySize=auto;html=1;fontSize=12;startSize=8;endSize=8;strokeColor=default;endArrow=none;endFill=0;" edge="1" parent="1" target="4lZ2Bp2uGJrG-R5DajwO-7">
          <mxGeometry relative="1" as="geometry">
            <mxPoint x="92" y="151" as="sourcePoint" />
            <mxPoint x="-63" y="156" as="targetPoint" />
          </mxGeometry>
        </mxCell>
        <mxCell id="4lZ2Bp2uGJrG-R5DajwO-9" value="&lt;b style=&quot;font-size: 15px;&quot;&gt;직원&lt;u&gt;(직원번호&lt;/u&gt;, 이름)&lt;/b&gt;" style="text;html=1;align=center;verticalAlign=middle;resizable=0;points=[];autosize=1;strokeColor=#d6b656;fillColor=#fff2cc;fontSize=12;fontFamily=Helvetica;labelBackgroundColor=none;" vertex="1" parent="1">
          <mxGeometry x="777" y="26" width="156" height="30" as="geometry" />
        </mxCell>
        <mxCell id="4lZ2Bp2uGJrG-R5DajwO-23" value="직원&lt;span style=&quot;white-space: pre;&quot;&gt;&#x9;&lt;/span&gt;" style="shape=table;startSize=30;container=1;collapsible=1;childLayout=tableLayout;fixedRows=1;rowLines=0;fontStyle=1;align=center;resizeLast=1;html=1;fontFamily=Helvetica;fontSize=12;fontColor=default;labelBackgroundColor=default;" vertex="1" parent="1">
          <mxGeometry x="777" y="71" width="193" height="150" as="geometry" />
        </mxCell>
        <mxCell id="4lZ2Bp2uGJrG-R5DajwO-24" value="" style="shape=tableRow;horizontal=0;startSize=0;swimlaneHead=0;swimlaneBody=0;fillColor=none;collapsible=0;dropTarget=0;points=[[0,0.5],[1,0.5]];portConstraint=eastwest;top=0;left=0;right=0;bottom=1;fontFamily=Helvetica;fontSize=12;fontColor=default;labelBackgroundColor=default;" vertex="1" parent="4lZ2Bp2uGJrG-R5DajwO-23">
          <mxGeometry y="30" width="193" height="30" as="geometry" />
        </mxCell>
        <mxCell id="4lZ2Bp2uGJrG-R5DajwO-25" value="PK" style="shape=partialRectangle;connectable=0;fillColor=none;top=0;left=0;bottom=0;right=0;fontStyle=1;overflow=hidden;whiteSpace=wrap;html=1;fontFamily=Helvetica;fontSize=12;fontColor=default;labelBackgroundColor=default;" vertex="1" parent="4lZ2Bp2uGJrG-R5DajwO-24">
          <mxGeometry width="30" height="30" as="geometry">
            <mxRectangle width="30" height="30" as="alternateBounds" />
          </mxGeometry>
        </mxCell>
        <mxCell id="4lZ2Bp2uGJrG-R5DajwO-26" value="직원번호" style="shape=partialRectangle;connectable=0;fillColor=none;top=0;left=0;bottom=0;right=0;align=left;spacingLeft=6;fontStyle=5;overflow=hidden;whiteSpace=wrap;html=1;fontFamily=Helvetica;fontSize=12;fontColor=default;labelBackgroundColor=default;" vertex="1" parent="4lZ2Bp2uGJrG-R5DajwO-24">
          <mxGeometry x="30" width="163" height="30" as="geometry">
            <mxRectangle width="163" height="30" as="alternateBounds" />
          </mxGeometry>
        </mxCell>
        <mxCell id="4lZ2Bp2uGJrG-R5DajwO-27" value="" style="shape=tableRow;horizontal=0;startSize=0;swimlaneHead=0;swimlaneBody=0;fillColor=none;collapsible=0;dropTarget=0;points=[[0,0.5],[1,0.5]];portConstraint=eastwest;top=0;left=0;right=0;bottom=0;fontFamily=Helvetica;fontSize=12;fontColor=default;labelBackgroundColor=default;" vertex="1" parent="4lZ2Bp2uGJrG-R5DajwO-23">
          <mxGeometry y="60" width="193" height="30" as="geometry" />
        </mxCell>
        <mxCell id="4lZ2Bp2uGJrG-R5DajwO-28" value="" style="shape=partialRectangle;connectable=0;fillColor=none;top=0;left=0;bottom=0;right=0;editable=1;overflow=hidden;whiteSpace=wrap;html=1;fontFamily=Helvetica;fontSize=12;fontColor=default;labelBackgroundColor=default;" vertex="1" parent="4lZ2Bp2uGJrG-R5DajwO-27">
          <mxGeometry width="30" height="30" as="geometry">
            <mxRectangle width="30" height="30" as="alternateBounds" />
          </mxGeometry>
        </mxCell>
        <mxCell id="4lZ2Bp2uGJrG-R5DajwO-29" value="이름" style="shape=partialRectangle;connectable=0;fillColor=none;top=0;left=0;bottom=0;right=0;align=left;spacingLeft=6;overflow=hidden;whiteSpace=wrap;html=1;fontFamily=Helvetica;fontSize=12;fontColor=default;labelBackgroundColor=default;" vertex="1" parent="4lZ2Bp2uGJrG-R5DajwO-27">
          <mxGeometry x="30" width="163" height="30" as="geometry">
            <mxRectangle width="163" height="30" as="alternateBounds" />
          </mxGeometry>
        </mxCell>
        <mxCell id="4lZ2Bp2uGJrG-R5DajwO-30" value="" style="shape=tableRow;horizontal=0;startSize=0;swimlaneHead=0;swimlaneBody=0;fillColor=none;collapsible=0;dropTarget=0;points=[[0,0.5],[1,0.5]];portConstraint=eastwest;top=0;left=0;right=0;bottom=0;fontFamily=Helvetica;fontSize=12;fontColor=default;labelBackgroundColor=default;" vertex="1" parent="4lZ2Bp2uGJrG-R5DajwO-23">
          <mxGeometry y="90" width="193" height="30" as="geometry" />
        </mxCell>
        <mxCell id="4lZ2Bp2uGJrG-R5DajwO-31" value="" style="shape=partialRectangle;connectable=0;fillColor=none;top=0;left=0;bottom=0;right=0;editable=1;overflow=hidden;whiteSpace=wrap;html=1;fontFamily=Helvetica;fontSize=12;fontColor=default;labelBackgroundColor=default;" vertex="1" parent="4lZ2Bp2uGJrG-R5DajwO-30">
          <mxGeometry width="30" height="30" as="geometry">
            <mxRectangle width="30" height="30" as="alternateBounds" />
          </mxGeometry>
        </mxCell>
        <mxCell id="4lZ2Bp2uGJrG-R5DajwO-32" value="..." style="shape=partialRectangle;connectable=0;fillColor=none;top=0;left=0;bottom=0;right=0;align=left;spacingLeft=6;overflow=hidden;whiteSpace=wrap;html=1;fontFamily=Helvetica;fontSize=12;fontColor=default;labelBackgroundColor=default;" vertex="1" parent="4lZ2Bp2uGJrG-R5DajwO-30">
          <mxGeometry x="30" width="163" height="30" as="geometry">
            <mxRectangle width="163" height="30" as="alternateBounds" />
          </mxGeometry>
        </mxCell>
        <mxCell id="4lZ2Bp2uGJrG-R5DajwO-33" value="" style="shape=tableRow;horizontal=0;startSize=0;swimlaneHead=0;swimlaneBody=0;fillColor=none;collapsible=0;dropTarget=0;points=[[0,0.5],[1,0.5]];portConstraint=eastwest;top=0;left=0;right=0;bottom=0;fontFamily=Helvetica;fontSize=12;fontColor=default;labelBackgroundColor=default;" vertex="1" parent="4lZ2Bp2uGJrG-R5DajwO-23">
          <mxGeometry y="120" width="193" height="30" as="geometry" />
        </mxCell>
        <mxCell id="4lZ2Bp2uGJrG-R5DajwO-34" value="" style="shape=partialRectangle;connectable=0;fillColor=none;top=0;left=0;bottom=0;right=0;editable=1;overflow=hidden;whiteSpace=wrap;html=1;fontFamily=Helvetica;fontSize=12;fontColor=default;labelBackgroundColor=default;" vertex="1" parent="4lZ2Bp2uGJrG-R5DajwO-33">
          <mxGeometry width="30" height="30" as="geometry">
            <mxRectangle width="30" height="30" as="alternateBounds" />
          </mxGeometry>
        </mxCell>
        <mxCell id="4lZ2Bp2uGJrG-R5DajwO-35" value="" style="shape=partialRectangle;connectable=0;fillColor=none;top=0;left=0;bottom=0;right=0;align=left;spacingLeft=6;overflow=hidden;whiteSpace=wrap;html=1;fontFamily=Helvetica;fontSize=12;fontColor=default;labelBackgroundColor=default;" vertex="1" parent="4lZ2Bp2uGJrG-R5DajwO-33">
          <mxGeometry x="30" width="163" height="30" as="geometry">
            <mxRectangle width="163" height="30" as="alternateBounds" />
          </mxGeometry>
        </mxCell>
        <mxCell id="4lZ2Bp2uGJrG-R5DajwO-36" value="ER 모델을 관계 데이터 모델로 매핑하기" style="text;html=1;align=center;verticalAlign=middle;resizable=0;points=[];autosize=1;strokeColor=none;fillColor=none;fontSize=15;fontFamily=Helvetica;fontColor=default;labelBackgroundColor=default;fontStyle=1" vertex="1" parent="1">
          <mxGeometry x="85" y="-92" width="285" height="30" as="geometry" />
        </mxCell>
        <mxCell id="4lZ2Bp2uGJrG-R5DajwO-37" value="&lt;span style=&quot;font-size: 15px;&quot;&gt;&lt;b&gt;ER 모델&lt;/b&gt;&lt;/span&gt;" style="text;html=1;align=center;verticalAlign=middle;resizable=0;points=[];autosize=1;strokeColor=#d6b656;fillColor=#fff2cc;fontSize=12;fontFamily=Helvetica;labelBackgroundColor=none;" vertex="1" parent="1">
          <mxGeometry x="25" y="26" width="73" height="30" as="geometry" />
        </mxCell>
        <mxCell id="4lZ2Bp2uGJrG-R5DajwO-38" value="" style="verticalLabelPosition=bottom;verticalAlign=top;html=1;strokeWidth=2;shape=mxgraph.arrows2.arrow;dy=0.6;dx=40;notch=0;fontFamily=Helvetica;fontSize=12;fontColor=default;labelBackgroundColor=default;" vertex="1" parent="1">
          <mxGeometry x="467" y="92.25" width="148" height="53.5" as="geometry" />
        </mxCell>
        <mxCell id="yMqqP-uW__0DjXW2lb2f-1" value="소속" style="shape=rhombus;perimeter=rhombusPerimeter;whiteSpace=wrap;html=1;align=center;" vertex="1" parent="1">
          <mxGeometry x="-98.88" y="522" width="206.88" height="101" as="geometry" />
        </mxCell>
        <mxCell id="yMqqP-uW__0DjXW2lb2f-2" value="학과" style="whiteSpace=wrap;html=1;align=center;" vertex="1" parent="1">
          <mxGeometry x="207" y="531.75" width="159" height="81.5" as="geometry" />
        </mxCell>
        <mxCell id="yMqqP-uW__0DjXW2lb2f-3" value="학생" style="whiteSpace=wrap;html=1;align=center;" vertex="1" parent="1">
          <mxGeometry x="-352.00000000000006" y="535" width="159" height="81.5" as="geometry" />
        </mxCell>
        <mxCell id="yMqqP-uW__0DjXW2lb2f-4" value="" style="endArrow=none;html=1;rounded=0;fontSize=12;startSize=8;endSize=8;curved=1;" edge="1" parent="1">
          <mxGeometry relative="1" as="geometry">
            <mxPoint x="-193" y="572.21" as="sourcePoint" />
            <mxPoint x="-95.56" y="572" as="targetPoint" />
          </mxGeometry>
        </mxCell>
        <mxCell id="yMqqP-uW__0DjXW2lb2f-5" value="N" style="resizable=0;html=1;whiteSpace=wrap;align=right;verticalAlign=bottom;" connectable="0" vertex="1" parent="yMqqP-uW__0DjXW2lb2f-4">
          <mxGeometry x="1" relative="1" as="geometry">
            <mxPoint x="-84" as="offset" />
          </mxGeometry>
        </mxCell>
        <mxCell id="yMqqP-uW__0DjXW2lb2f-6" value="" style="endArrow=none;html=1;rounded=0;fontSize=12;startSize=8;endSize=8;curved=1;" edge="1" parent="1">
          <mxGeometry relative="1" as="geometry">
            <mxPoint x="108" y="572.1599999999999" as="sourcePoint" />
            <mxPoint x="205.44000000000005" y="574" as="targetPoint" />
          </mxGeometry>
        </mxCell>
        <mxCell id="yMqqP-uW__0DjXW2lb2f-7" value="1" style="resizable=0;html=1;whiteSpace=wrap;align=left;verticalAlign=bottom;" connectable="0" vertex="1" parent="yMqqP-uW__0DjXW2lb2f-6">
          <mxGeometry x="-1" relative="1" as="geometry">
            <mxPoint x="82" as="offset" />
          </mxGeometry>
        </mxCell>
        <mxCell id="yMqqP-uW__0DjXW2lb2f-8" value="" style="shape=partialRectangle;connectable=0;fillColor=none;top=0;left=0;bottom=0;right=0;align=left;spacingLeft=6;overflow=hidden;whiteSpace=wrap;html=1;fontFamily=Helvetica;fontSize=12;fontColor=default;labelBackgroundColor=default;" vertex="1" parent="1">
          <mxGeometry x="817" y="201" width="163" height="30" as="geometry">
            <mxRectangle width="163" height="30" as="alternateBounds" />
          </mxGeometry>
        </mxCell>
        <mxCell id="yMqqP-uW__0DjXW2lb2f-9" value="학생" style="shape=table;startSize=30;container=1;collapsible=1;childLayout=tableLayout;fixedRows=1;rowLines=0;fontStyle=1;align=center;resizeLast=1;html=1;fontFamily=Helvetica;fontSize=12;fontColor=default;labelBackgroundColor=default;" vertex="1" parent="1">
          <mxGeometry x="924" y="481.94" width="143" height="92" as="geometry" />
        </mxCell>
        <mxCell id="yMqqP-uW__0DjXW2lb2f-10" value="" style="shape=tableRow;horizontal=0;startSize=0;swimlaneHead=0;swimlaneBody=0;fillColor=none;collapsible=0;dropTarget=0;points=[[0,0.5],[1,0.5]];portConstraint=eastwest;top=0;left=0;right=0;bottom=1;fontFamily=Helvetica;fontSize=12;fontColor=default;labelBackgroundColor=default;" vertex="1" parent="yMqqP-uW__0DjXW2lb2f-9">
          <mxGeometry y="30" width="143" height="30" as="geometry" />
        </mxCell>
        <mxCell id="yMqqP-uW__0DjXW2lb2f-11" value="PK" style="shape=partialRectangle;connectable=0;fillColor=none;top=0;left=0;bottom=0;right=0;fontStyle=1;overflow=hidden;whiteSpace=wrap;html=1;fontFamily=Helvetica;fontSize=12;fontColor=default;labelBackgroundColor=default;" vertex="1" parent="yMqqP-uW__0DjXW2lb2f-10">
          <mxGeometry width="30" height="30" as="geometry">
            <mxRectangle width="30" height="30" as="alternateBounds" />
          </mxGeometry>
        </mxCell>
        <mxCell id="yMqqP-uW__0DjXW2lb2f-12" value="학과코드" style="shape=partialRectangle;connectable=0;fillColor=none;top=0;left=0;bottom=0;right=0;align=left;spacingLeft=6;fontStyle=5;overflow=hidden;whiteSpace=wrap;html=1;fontFamily=Helvetica;fontSize=12;fontColor=default;labelBackgroundColor=default;" vertex="1" parent="yMqqP-uW__0DjXW2lb2f-10">
          <mxGeometry x="30" width="113" height="30" as="geometry">
            <mxRectangle width="113" height="30" as="alternateBounds" />
          </mxGeometry>
        </mxCell>
        <mxCell id="yMqqP-uW__0DjXW2lb2f-13" value="" style="shape=tableRow;horizontal=0;startSize=0;swimlaneHead=0;swimlaneBody=0;fillColor=none;collapsible=0;dropTarget=0;points=[[0,0.5],[1,0.5]];portConstraint=eastwest;top=0;left=0;right=0;bottom=0;fontFamily=Helvetica;fontSize=12;fontColor=default;labelBackgroundColor=default;" vertex="1" parent="yMqqP-uW__0DjXW2lb2f-9">
          <mxGeometry y="60" width="143" height="30" as="geometry" />
        </mxCell>
        <mxCell id="yMqqP-uW__0DjXW2lb2f-14" value="" style="shape=partialRectangle;connectable=0;fillColor=none;top=0;left=0;bottom=0;right=0;editable=1;overflow=hidden;whiteSpace=wrap;html=1;fontFamily=Helvetica;fontSize=12;fontColor=default;labelBackgroundColor=default;" vertex="1" parent="yMqqP-uW__0DjXW2lb2f-13">
          <mxGeometry width="30" height="30" as="geometry">
            <mxRectangle width="30" height="30" as="alternateBounds" />
          </mxGeometry>
        </mxCell>
        <mxCell id="yMqqP-uW__0DjXW2lb2f-15" value="학과명" style="shape=partialRectangle;connectable=0;fillColor=none;top=0;left=0;bottom=0;right=0;align=left;spacingLeft=6;overflow=hidden;whiteSpace=wrap;html=1;fontFamily=Helvetica;fontSize=12;fontColor=default;labelBackgroundColor=default;" vertex="1" parent="yMqqP-uW__0DjXW2lb2f-13">
          <mxGeometry x="30" width="113" height="30" as="geometry">
            <mxRectangle width="113" height="30" as="alternateBounds" />
          </mxGeometry>
        </mxCell>
        <mxCell id="yMqqP-uW__0DjXW2lb2f-24" value="" style="edgeStyle=none;curved=1;rounded=0;orthogonalLoop=1;jettySize=auto;html=1;strokeColor=default;align=center;verticalAlign=middle;fontFamily=Helvetica;fontSize=12;fontColor=default;labelBackgroundColor=default;startSize=8;endArrow=none;endSize=8;endFill=0;" edge="1" parent="1" source="yMqqP-uW__0DjXW2lb2f-23" target="yMqqP-uW__0DjXW2lb2f-3">
          <mxGeometry relative="1" as="geometry" />
        </mxCell>
        <mxCell id="yMqqP-uW__0DjXW2lb2f-23" value="이름" style="ellipse;whiteSpace=wrap;html=1;align=center;" vertex="1" parent="1">
          <mxGeometry x="-444" y="665" width="129" height="61" as="geometry" />
        </mxCell>
        <mxCell id="yMqqP-uW__0DjXW2lb2f-25" value="" style="edgeStyle=none;curved=1;rounded=0;orthogonalLoop=1;jettySize=auto;html=1;strokeColor=default;align=center;verticalAlign=middle;fontFamily=Helvetica;fontSize=12;fontColor=default;labelBackgroundColor=default;startSize=8;endArrow=none;endSize=8;endFill=0;entryX=0.672;entryY=0.988;entryDx=0;entryDy=0;entryPerimeter=0;" edge="1" parent="1" source="yMqqP-uW__0DjXW2lb2f-26" target="yMqqP-uW__0DjXW2lb2f-3">
          <mxGeometry relative="1" as="geometry">
            <mxPoint x="-173" y="617" as="targetPoint" />
          </mxGeometry>
        </mxCell>
        <mxCell id="yMqqP-uW__0DjXW2lb2f-26" value="학번" style="ellipse;whiteSpace=wrap;html=1;align=center;" vertex="1" parent="1">
          <mxGeometry x="-248" y="665" width="129" height="61" as="geometry" />
        </mxCell>
        <mxCell id="yMqqP-uW__0DjXW2lb2f-27" value="" style="edgeStyle=none;curved=1;rounded=0;orthogonalLoop=1;jettySize=auto;html=1;strokeColor=default;align=center;verticalAlign=middle;fontFamily=Helvetica;fontSize=12;fontColor=default;labelBackgroundColor=default;startSize=8;endArrow=none;endSize=8;endFill=0;" edge="1" parent="1" source="yMqqP-uW__0DjXW2lb2f-28">
          <mxGeometry relative="1" as="geometry">
            <mxPoint x="256" y="613.25" as="targetPoint" />
          </mxGeometry>
        </mxCell>
        <mxCell id="yMqqP-uW__0DjXW2lb2f-28" value="&lt;u&gt;학과코드&lt;/u&gt;" style="ellipse;whiteSpace=wrap;html=1;align=center;" vertex="1" parent="1">
          <mxGeometry x="121" y="661.25" width="129" height="61" as="geometry" />
        </mxCell>
        <mxCell id="yMqqP-uW__0DjXW2lb2f-29" value="" style="edgeStyle=none;curved=1;rounded=0;orthogonalLoop=1;jettySize=auto;html=1;strokeColor=default;align=center;verticalAlign=middle;fontFamily=Helvetica;fontSize=12;fontColor=default;labelBackgroundColor=default;startSize=8;endArrow=none;endSize=8;endFill=0;" edge="1" parent="1" source="yMqqP-uW__0DjXW2lb2f-30" target="yMqqP-uW__0DjXW2lb2f-2">
          <mxGeometry relative="1" as="geometry">
            <mxPoint x="417" y="613.25" as="targetPoint" />
          </mxGeometry>
        </mxCell>
        <mxCell id="yMqqP-uW__0DjXW2lb2f-30" value="학과명" style="ellipse;whiteSpace=wrap;html=1;align=center;" vertex="1" parent="1">
          <mxGeometry x="300" y="661.25" width="129" height="61" as="geometry" />
        </mxCell>
        <mxCell id="yMqqP-uW__0DjXW2lb2f-33" value="학생" style="shape=table;startSize=30;container=1;collapsible=1;childLayout=tableLayout;fixedRows=1;rowLines=0;fontStyle=1;align=center;resizeLast=1;html=1;fontFamily=Helvetica;fontSize=12;fontColor=default;labelBackgroundColor=default;" vertex="1" parent="1">
          <mxGeometry x="719" y="481.94" width="161" height="153.12" as="geometry" />
        </mxCell>
        <mxCell id="yMqqP-uW__0DjXW2lb2f-34" value="" style="shape=tableRow;horizontal=0;startSize=0;swimlaneHead=0;swimlaneBody=0;fillColor=none;collapsible=0;dropTarget=0;points=[[0,0.5],[1,0.5]];portConstraint=eastwest;top=0;left=0;right=0;bottom=1;fontFamily=Helvetica;fontSize=12;fontColor=default;labelBackgroundColor=default;" vertex="1" parent="yMqqP-uW__0DjXW2lb2f-33">
          <mxGeometry y="30" width="161" height="30" as="geometry" />
        </mxCell>
        <mxCell id="yMqqP-uW__0DjXW2lb2f-35" value="PK" style="shape=partialRectangle;connectable=0;fillColor=none;top=0;left=0;bottom=0;right=0;fontStyle=1;overflow=hidden;whiteSpace=wrap;html=1;fontFamily=Helvetica;fontSize=12;fontColor=default;labelBackgroundColor=default;" vertex="1" parent="yMqqP-uW__0DjXW2lb2f-34">
          <mxGeometry width="30" height="30" as="geometry">
            <mxRectangle width="30" height="30" as="alternateBounds" />
          </mxGeometry>
        </mxCell>
        <mxCell id="yMqqP-uW__0DjXW2lb2f-36" value="학번" style="shape=partialRectangle;connectable=0;fillColor=none;top=0;left=0;bottom=0;right=0;align=left;spacingLeft=6;fontStyle=5;overflow=hidden;whiteSpace=wrap;html=1;fontFamily=Helvetica;fontSize=12;fontColor=default;labelBackgroundColor=default;" vertex="1" parent="yMqqP-uW__0DjXW2lb2f-34">
          <mxGeometry x="30" width="131" height="30" as="geometry">
            <mxRectangle width="131" height="30" as="alternateBounds" />
          </mxGeometry>
        </mxCell>
        <mxCell id="yMqqP-uW__0DjXW2lb2f-37" value="" style="shape=tableRow;horizontal=0;startSize=0;swimlaneHead=0;swimlaneBody=0;fillColor=none;collapsible=0;dropTarget=0;points=[[0,0.5],[1,0.5]];portConstraint=eastwest;top=0;left=0;right=0;bottom=0;fontFamily=Helvetica;fontSize=12;fontColor=default;labelBackgroundColor=default;" vertex="1" parent="yMqqP-uW__0DjXW2lb2f-33">
          <mxGeometry y="60" width="161" height="30" as="geometry" />
        </mxCell>
        <mxCell id="yMqqP-uW__0DjXW2lb2f-38" value="" style="shape=partialRectangle;connectable=0;fillColor=none;top=0;left=0;bottom=0;right=0;editable=1;overflow=hidden;whiteSpace=wrap;html=1;fontFamily=Helvetica;fontSize=12;fontColor=default;labelBackgroundColor=default;" vertex="1" parent="yMqqP-uW__0DjXW2lb2f-37">
          <mxGeometry width="30" height="30" as="geometry">
            <mxRectangle width="30" height="30" as="alternateBounds" />
          </mxGeometry>
        </mxCell>
        <mxCell id="yMqqP-uW__0DjXW2lb2f-39" value="이름" style="shape=partialRectangle;connectable=0;fillColor=none;top=0;left=0;bottom=0;right=0;align=left;spacingLeft=6;overflow=hidden;whiteSpace=wrap;html=1;fontFamily=Helvetica;fontSize=12;fontColor=default;labelBackgroundColor=default;" vertex="1" parent="yMqqP-uW__0DjXW2lb2f-37">
          <mxGeometry x="30" width="131" height="30" as="geometry">
            <mxRectangle width="131" height="30" as="alternateBounds" />
          </mxGeometry>
        </mxCell>
        <mxCell id="yMqqP-uW__0DjXW2lb2f-40" value="" style="shape=tableRow;horizontal=0;startSize=0;swimlaneHead=0;swimlaneBody=0;fillColor=none;collapsible=0;dropTarget=0;points=[[0,0.5],[1,0.5]];portConstraint=eastwest;top=0;left=0;right=0;bottom=0;fontFamily=Helvetica;fontSize=12;fontColor=default;labelBackgroundColor=default;" vertex="1" parent="yMqqP-uW__0DjXW2lb2f-33">
          <mxGeometry y="90" width="161" height="33" as="geometry" />
        </mxCell>
        <mxCell id="yMqqP-uW__0DjXW2lb2f-41" value="FK" style="shape=partialRectangle;connectable=0;fillColor=none;top=0;left=0;bottom=0;right=0;editable=1;overflow=hidden;whiteSpace=wrap;html=1;fontFamily=Helvetica;fontSize=12;fontColor=default;labelBackgroundColor=default;" vertex="1" parent="yMqqP-uW__0DjXW2lb2f-40">
          <mxGeometry width="30" height="33" as="geometry">
            <mxRectangle width="30" height="33" as="alternateBounds" />
          </mxGeometry>
        </mxCell>
        <mxCell id="yMqqP-uW__0DjXW2lb2f-42" value="학과코드" style="shape=partialRectangle;connectable=0;fillColor=none;top=0;left=0;bottom=0;right=0;align=left;spacingLeft=6;overflow=hidden;whiteSpace=wrap;html=1;fontFamily=Helvetica;fontSize=12;fontColor=default;labelBackgroundColor=default;" vertex="1" parent="yMqqP-uW__0DjXW2lb2f-40">
          <mxGeometry x="30" width="131" height="33" as="geometry">
            <mxRectangle width="131" height="33" as="alternateBounds" />
          </mxGeometry>
        </mxCell>
        <mxCell id="yMqqP-uW__0DjXW2lb2f-43" value="" style="shape=tableRow;horizontal=0;startSize=0;swimlaneHead=0;swimlaneBody=0;fillColor=none;collapsible=0;dropTarget=0;points=[[0,0.5],[1,0.5]];portConstraint=eastwest;top=0;left=0;right=0;bottom=0;fontFamily=Helvetica;fontSize=12;fontColor=default;labelBackgroundColor=default;" vertex="1" parent="yMqqP-uW__0DjXW2lb2f-33">
          <mxGeometry y="123" width="161" height="30" as="geometry" />
        </mxCell>
        <mxCell id="yMqqP-uW__0DjXW2lb2f-44" value="" style="shape=partialRectangle;connectable=0;fillColor=none;top=0;left=0;bottom=0;right=0;editable=1;overflow=hidden;whiteSpace=wrap;html=1;fontFamily=Helvetica;fontSize=12;fontColor=default;labelBackgroundColor=default;" vertex="1" parent="yMqqP-uW__0DjXW2lb2f-43">
          <mxGeometry width="30" height="30" as="geometry">
            <mxRectangle width="30" height="30" as="alternateBounds" />
          </mxGeometry>
        </mxCell>
        <mxCell id="yMqqP-uW__0DjXW2lb2f-45" value="" style="shape=partialRectangle;connectable=0;fillColor=none;top=0;left=0;bottom=0;right=0;align=left;spacingLeft=6;overflow=hidden;whiteSpace=wrap;html=1;fontFamily=Helvetica;fontSize=12;fontColor=default;labelBackgroundColor=default;" vertex="1" parent="yMqqP-uW__0DjXW2lb2f-43">
          <mxGeometry x="30" width="131" height="30" as="geometry">
            <mxRectangle width="131" height="30" as="alternateBounds" />
          </mxGeometry>
        </mxCell>
        <mxCell id="yMqqP-uW__0DjXW2lb2f-46" value="이진 1:N 관계 매핑: 관계(소속)을 학생(N)에서 학과(1)의 기본키를 외래키(FK)로 사용&amp;nbsp;" style="text;html=1;align=center;verticalAlign=middle;resizable=0;points=[];autosize=1;strokeColor=none;fillColor=none;fontSize=15;fontFamily=Helvetica;fontColor=default;labelBackgroundColor=default;" vertex="1" parent="1">
          <mxGeometry x="-261" y="459" width="586" height="30" as="geometry" />
        </mxCell>
        <mxCell id="yMqqP-uW__0DjXW2lb2f-47" value="" style="verticalLabelPosition=bottom;verticalAlign=top;html=1;strokeWidth=2;shape=mxgraph.arrows2.arrow;dy=0.6;dx=40;notch=0;fontFamily=Helvetica;fontSize=12;fontColor=default;labelBackgroundColor=default;" vertex="1" parent="1">
          <mxGeometry x="467" y="531.75" width="148" height="53.5" as="geometry" />
        </mxCell>
        <mxCell id="yMqqP-uW__0DjXW2lb2f-61" value="사양" style="shape=rhombus;perimeter=rhombusPerimeter;whiteSpace=wrap;html=1;align=center;" vertex="1" parent="1">
          <mxGeometry x="-86.82" y="871" width="206.88" height="101" as="geometry" />
        </mxCell>
        <mxCell id="yMqqP-uW__0DjXW2lb2f-62" value="컴퓨터" style="whiteSpace=wrap;html=1;align=center;" vertex="1" parent="1">
          <mxGeometry x="219.06" y="880.75" width="159" height="81.5" as="geometry" />
        </mxCell>
        <mxCell id="yMqqP-uW__0DjXW2lb2f-63" value="학생" style="whiteSpace=wrap;html=1;align=center;" vertex="1" parent="1">
          <mxGeometry x="-339.94000000000005" y="884" width="159" height="81.5" as="geometry" />
        </mxCell>
        <mxCell id="yMqqP-uW__0DjXW2lb2f-64" value="" style="endArrow=none;html=1;rounded=0;fontSize=12;startSize=8;endSize=8;curved=1;" edge="1" parent="1">
          <mxGeometry relative="1" as="geometry">
            <mxPoint x="-180.94" y="921.21" as="sourcePoint" />
            <mxPoint x="-83.5" y="921" as="targetPoint" />
          </mxGeometry>
        </mxCell>
        <mxCell id="yMqqP-uW__0DjXW2lb2f-65" value="1" style="resizable=0;html=1;whiteSpace=wrap;align=right;verticalAlign=bottom;" connectable="0" vertex="1" parent="yMqqP-uW__0DjXW2lb2f-64">
          <mxGeometry x="1" relative="1" as="geometry">
            <mxPoint x="-84" as="offset" />
          </mxGeometry>
        </mxCell>
        <mxCell id="yMqqP-uW__0DjXW2lb2f-66" value="" style="endArrow=none;html=1;rounded=0;fontSize=12;startSize=8;endSize=8;curved=1;" edge="1" parent="1">
          <mxGeometry relative="1" as="geometry">
            <mxPoint x="120.06" y="921.1599999999999" as="sourcePoint" />
            <mxPoint x="217.50000000000006" y="923" as="targetPoint" />
          </mxGeometry>
        </mxCell>
        <mxCell id="yMqqP-uW__0DjXW2lb2f-67" value="1" style="resizable=0;html=1;whiteSpace=wrap;align=left;verticalAlign=bottom;" connectable="0" vertex="1" parent="yMqqP-uW__0DjXW2lb2f-66">
          <mxGeometry x="-1" relative="1" as="geometry">
            <mxPoint x="82" as="offset" />
          </mxGeometry>
        </mxCell>
        <mxCell id="yMqqP-uW__0DjXW2lb2f-68" value="" style="edgeStyle=none;curved=1;rounded=0;orthogonalLoop=1;jettySize=auto;html=1;strokeColor=default;align=center;verticalAlign=middle;fontFamily=Helvetica;fontSize=12;fontColor=default;labelBackgroundColor=default;startSize=8;endArrow=none;endSize=8;endFill=0;" edge="1" parent="1" source="yMqqP-uW__0DjXW2lb2f-69" target="yMqqP-uW__0DjXW2lb2f-63">
          <mxGeometry relative="1" as="geometry" />
        </mxCell>
        <mxCell id="yMqqP-uW__0DjXW2lb2f-69" value="이름" style="ellipse;whiteSpace=wrap;html=1;align=center;" vertex="1" parent="1">
          <mxGeometry x="-431.94" y="1014" width="129" height="61" as="geometry" />
        </mxCell>
        <mxCell id="yMqqP-uW__0DjXW2lb2f-70" value="" style="edgeStyle=none;curved=1;rounded=0;orthogonalLoop=1;jettySize=auto;html=1;strokeColor=default;align=center;verticalAlign=middle;fontFamily=Helvetica;fontSize=12;fontColor=default;labelBackgroundColor=default;startSize=8;endArrow=none;endSize=8;endFill=0;entryX=0.672;entryY=0.988;entryDx=0;entryDy=0;entryPerimeter=0;" edge="1" parent="1" source="yMqqP-uW__0DjXW2lb2f-71" target="yMqqP-uW__0DjXW2lb2f-63">
          <mxGeometry relative="1" as="geometry">
            <mxPoint x="-160.94" y="966" as="targetPoint" />
          </mxGeometry>
        </mxCell>
        <mxCell id="yMqqP-uW__0DjXW2lb2f-71" value="학번" style="ellipse;whiteSpace=wrap;html=1;align=center;" vertex="1" parent="1">
          <mxGeometry x="-235.94" y="1014" width="129" height="61" as="geometry" />
        </mxCell>
        <mxCell id="yMqqP-uW__0DjXW2lb2f-72" value="" style="edgeStyle=none;curved=1;rounded=0;orthogonalLoop=1;jettySize=auto;html=1;strokeColor=default;align=center;verticalAlign=middle;fontFamily=Helvetica;fontSize=12;fontColor=default;labelBackgroundColor=default;startSize=8;endArrow=none;endSize=8;endFill=0;" edge="1" parent="1" source="yMqqP-uW__0DjXW2lb2f-73">
          <mxGeometry relative="1" as="geometry">
            <mxPoint x="268.06" y="962.25" as="targetPoint" />
          </mxGeometry>
        </mxCell>
        <mxCell id="yMqqP-uW__0DjXW2lb2f-73" value="&lt;u&gt;컴퓨터번호&lt;/u&gt;" style="ellipse;whiteSpace=wrap;html=1;align=center;" vertex="1" parent="1">
          <mxGeometry x="133.06" y="1010.25" width="129" height="61" as="geometry" />
        </mxCell>
        <mxCell id="yMqqP-uW__0DjXW2lb2f-74" value="" style="edgeStyle=none;curved=1;rounded=0;orthogonalLoop=1;jettySize=auto;html=1;strokeColor=default;align=center;verticalAlign=middle;fontFamily=Helvetica;fontSize=12;fontColor=default;labelBackgroundColor=default;startSize=8;endArrow=none;endSize=8;endFill=0;" edge="1" parent="1" source="yMqqP-uW__0DjXW2lb2f-75" target="yMqqP-uW__0DjXW2lb2f-62">
          <mxGeometry relative="1" as="geometry">
            <mxPoint x="429.06" y="962.25" as="targetPoint" />
          </mxGeometry>
        </mxCell>
        <mxCell id="yMqqP-uW__0DjXW2lb2f-75" value="사양" style="ellipse;whiteSpace=wrap;html=1;align=center;" vertex="1" parent="1">
          <mxGeometry x="312.06" y="1010.25" width="129" height="61" as="geometry" />
        </mxCell>
        <mxCell id="yMqqP-uW__0DjXW2lb2f-76" value="학생" style="shape=table;startSize=30;container=1;collapsible=1;childLayout=tableLayout;fixedRows=1;rowLines=0;fontStyle=1;align=center;resizeLast=1;html=1;fontFamily=Helvetica;fontSize=12;fontColor=default;labelBackgroundColor=default;" vertex="1" parent="1">
          <mxGeometry x="929.5" y="851" width="143" height="92" as="geometry" />
        </mxCell>
        <mxCell id="yMqqP-uW__0DjXW2lb2f-77" value="" style="shape=tableRow;horizontal=0;startSize=0;swimlaneHead=0;swimlaneBody=0;fillColor=none;collapsible=0;dropTarget=0;points=[[0,0.5],[1,0.5]];portConstraint=eastwest;top=0;left=0;right=0;bottom=1;fontFamily=Helvetica;fontSize=12;fontColor=default;labelBackgroundColor=default;" vertex="1" parent="yMqqP-uW__0DjXW2lb2f-76">
          <mxGeometry y="30" width="143" height="30" as="geometry" />
        </mxCell>
        <mxCell id="yMqqP-uW__0DjXW2lb2f-78" value="PK" style="shape=partialRectangle;connectable=0;fillColor=none;top=0;left=0;bottom=0;right=0;fontStyle=1;overflow=hidden;whiteSpace=wrap;html=1;fontFamily=Helvetica;fontSize=12;fontColor=default;labelBackgroundColor=default;" vertex="1" parent="yMqqP-uW__0DjXW2lb2f-77">
          <mxGeometry width="30" height="30" as="geometry">
            <mxRectangle width="30" height="30" as="alternateBounds" />
          </mxGeometry>
        </mxCell>
        <mxCell id="yMqqP-uW__0DjXW2lb2f-79" value="컴퓨터번호" style="shape=partialRectangle;connectable=0;fillColor=none;top=0;left=0;bottom=0;right=0;align=left;spacingLeft=6;fontStyle=5;overflow=hidden;whiteSpace=wrap;html=1;fontFamily=Helvetica;fontSize=12;fontColor=default;labelBackgroundColor=default;" vertex="1" parent="yMqqP-uW__0DjXW2lb2f-77">
          <mxGeometry x="30" width="113" height="30" as="geometry">
            <mxRectangle width="113" height="30" as="alternateBounds" />
          </mxGeometry>
        </mxCell>
        <mxCell id="yMqqP-uW__0DjXW2lb2f-80" value="" style="shape=tableRow;horizontal=0;startSize=0;swimlaneHead=0;swimlaneBody=0;fillColor=none;collapsible=0;dropTarget=0;points=[[0,0.5],[1,0.5]];portConstraint=eastwest;top=0;left=0;right=0;bottom=0;fontFamily=Helvetica;fontSize=12;fontColor=default;labelBackgroundColor=default;" vertex="1" parent="yMqqP-uW__0DjXW2lb2f-76">
          <mxGeometry y="60" width="143" height="30" as="geometry" />
        </mxCell>
        <mxCell id="yMqqP-uW__0DjXW2lb2f-81" value="" style="shape=partialRectangle;connectable=0;fillColor=none;top=0;left=0;bottom=0;right=0;editable=1;overflow=hidden;whiteSpace=wrap;html=1;fontFamily=Helvetica;fontSize=12;fontColor=default;labelBackgroundColor=default;" vertex="1" parent="yMqqP-uW__0DjXW2lb2f-80">
          <mxGeometry width="30" height="30" as="geometry">
            <mxRectangle width="30" height="30" as="alternateBounds" />
          </mxGeometry>
        </mxCell>
        <mxCell id="yMqqP-uW__0DjXW2lb2f-82" value="사양" style="shape=partialRectangle;connectable=0;fillColor=none;top=0;left=0;bottom=0;right=0;align=left;spacingLeft=6;overflow=hidden;whiteSpace=wrap;html=1;fontFamily=Helvetica;fontSize=12;fontColor=default;labelBackgroundColor=default;" vertex="1" parent="yMqqP-uW__0DjXW2lb2f-80">
          <mxGeometry x="30" width="113" height="30" as="geometry">
            <mxRectangle width="113" height="30" as="alternateBounds" />
          </mxGeometry>
        </mxCell>
        <mxCell id="yMqqP-uW__0DjXW2lb2f-83" value="학생" style="shape=table;startSize=30;container=1;collapsible=1;childLayout=tableLayout;fixedRows=1;rowLines=0;fontStyle=1;align=center;resizeLast=1;html=1;fontFamily=Helvetica;fontSize=12;fontColor=default;labelBackgroundColor=default;" vertex="1" parent="1">
          <mxGeometry x="724.5" y="851" width="152.5" height="123" as="geometry" />
        </mxCell>
        <mxCell id="yMqqP-uW__0DjXW2lb2f-84" value="" style="shape=tableRow;horizontal=0;startSize=0;swimlaneHead=0;swimlaneBody=0;fillColor=none;collapsible=0;dropTarget=0;points=[[0,0.5],[1,0.5]];portConstraint=eastwest;top=0;left=0;right=0;bottom=1;fontFamily=Helvetica;fontSize=12;fontColor=default;labelBackgroundColor=default;" vertex="1" parent="yMqqP-uW__0DjXW2lb2f-83">
          <mxGeometry y="30" width="152.5" height="30" as="geometry" />
        </mxCell>
        <mxCell id="yMqqP-uW__0DjXW2lb2f-85" value="PK" style="shape=partialRectangle;connectable=0;fillColor=none;top=0;left=0;bottom=0;right=0;fontStyle=1;overflow=hidden;whiteSpace=wrap;html=1;fontFamily=Helvetica;fontSize=12;fontColor=default;labelBackgroundColor=default;" vertex="1" parent="yMqqP-uW__0DjXW2lb2f-84">
          <mxGeometry width="30" height="30" as="geometry">
            <mxRectangle width="30" height="30" as="alternateBounds" />
          </mxGeometry>
        </mxCell>
        <mxCell id="yMqqP-uW__0DjXW2lb2f-86" value="학번" style="shape=partialRectangle;connectable=0;fillColor=none;top=0;left=0;bottom=0;right=0;align=left;spacingLeft=6;fontStyle=5;overflow=hidden;whiteSpace=wrap;html=1;fontFamily=Helvetica;fontSize=12;fontColor=default;labelBackgroundColor=default;" vertex="1" parent="yMqqP-uW__0DjXW2lb2f-84">
          <mxGeometry x="30" width="122.5" height="30" as="geometry">
            <mxRectangle width="122.5" height="30" as="alternateBounds" />
          </mxGeometry>
        </mxCell>
        <mxCell id="yMqqP-uW__0DjXW2lb2f-87" value="" style="shape=tableRow;horizontal=0;startSize=0;swimlaneHead=0;swimlaneBody=0;fillColor=none;collapsible=0;dropTarget=0;points=[[0,0.5],[1,0.5]];portConstraint=eastwest;top=0;left=0;right=0;bottom=0;fontFamily=Helvetica;fontSize=12;fontColor=default;labelBackgroundColor=default;" vertex="1" parent="yMqqP-uW__0DjXW2lb2f-83">
          <mxGeometry y="60" width="152.5" height="30" as="geometry" />
        </mxCell>
        <mxCell id="yMqqP-uW__0DjXW2lb2f-88" value="" style="shape=partialRectangle;connectable=0;fillColor=none;top=0;left=0;bottom=0;right=0;editable=1;overflow=hidden;whiteSpace=wrap;html=1;fontFamily=Helvetica;fontSize=12;fontColor=default;labelBackgroundColor=default;" vertex="1" parent="yMqqP-uW__0DjXW2lb2f-87">
          <mxGeometry width="30" height="30" as="geometry">
            <mxRectangle width="30" height="30" as="alternateBounds" />
          </mxGeometry>
        </mxCell>
        <mxCell id="yMqqP-uW__0DjXW2lb2f-89" value="이름" style="shape=partialRectangle;connectable=0;fillColor=none;top=0;left=0;bottom=0;right=0;align=left;spacingLeft=6;overflow=hidden;whiteSpace=wrap;html=1;fontFamily=Helvetica;fontSize=12;fontColor=default;labelBackgroundColor=default;" vertex="1" parent="yMqqP-uW__0DjXW2lb2f-87">
          <mxGeometry x="30" width="122.5" height="30" as="geometry">
            <mxRectangle width="122.5" height="30" as="alternateBounds" />
          </mxGeometry>
        </mxCell>
        <mxCell id="yMqqP-uW__0DjXW2lb2f-90" value="" style="shape=tableRow;horizontal=0;startSize=0;swimlaneHead=0;swimlaneBody=0;fillColor=none;collapsible=0;dropTarget=0;points=[[0,0.5],[1,0.5]];portConstraint=eastwest;top=0;left=0;right=0;bottom=0;fontFamily=Helvetica;fontSize=12;fontColor=default;labelBackgroundColor=default;" vertex="1" parent="yMqqP-uW__0DjXW2lb2f-83">
          <mxGeometry y="90" width="152.5" height="33" as="geometry" />
        </mxCell>
        <mxCell id="yMqqP-uW__0DjXW2lb2f-91" value="FK" style="shape=partialRectangle;connectable=0;fillColor=none;top=0;left=0;bottom=0;right=0;editable=1;overflow=hidden;whiteSpace=wrap;html=1;fontFamily=Helvetica;fontSize=12;fontColor=default;labelBackgroundColor=default;" vertex="1" parent="yMqqP-uW__0DjXW2lb2f-90">
          <mxGeometry width="30" height="33" as="geometry">
            <mxRectangle width="30" height="33" as="alternateBounds" />
          </mxGeometry>
        </mxCell>
        <mxCell id="yMqqP-uW__0DjXW2lb2f-92" value="컴퓨터번호" style="shape=partialRectangle;connectable=0;fillColor=none;top=0;left=0;bottom=0;right=0;align=left;spacingLeft=6;overflow=hidden;whiteSpace=wrap;html=1;fontFamily=Helvetica;fontSize=12;fontColor=default;labelBackgroundColor=default;" vertex="1" parent="yMqqP-uW__0DjXW2lb2f-90">
          <mxGeometry x="30" width="122.5" height="33" as="geometry">
            <mxRectangle width="122.5" height="33" as="alternateBounds" />
          </mxGeometry>
        </mxCell>
        <mxCell id="yMqqP-uW__0DjXW2lb2f-115" value="학생" style="shape=table;startSize=30;container=1;collapsible=1;childLayout=tableLayout;fixedRows=1;rowLines=0;fontStyle=1;align=center;resizeLast=1;html=1;fontFamily=Helvetica;fontSize=12;fontColor=default;labelBackgroundColor=default;" vertex="1" parent="1">
          <mxGeometry x="724.5" y="1022" width="152.5" height="123" as="geometry" />
        </mxCell>
        <mxCell id="yMqqP-uW__0DjXW2lb2f-116" value="" style="shape=tableRow;horizontal=0;startSize=0;swimlaneHead=0;swimlaneBody=0;fillColor=none;collapsible=0;dropTarget=0;points=[[0,0.5],[1,0.5]];portConstraint=eastwest;top=0;left=0;right=0;bottom=1;fontFamily=Helvetica;fontSize=12;fontColor=default;labelBackgroundColor=default;" vertex="1" parent="yMqqP-uW__0DjXW2lb2f-115">
          <mxGeometry y="30" width="152.5" height="30" as="geometry" />
        </mxCell>
        <mxCell id="yMqqP-uW__0DjXW2lb2f-117" value="PK" style="shape=partialRectangle;connectable=0;fillColor=none;top=0;left=0;bottom=0;right=0;fontStyle=1;overflow=hidden;whiteSpace=wrap;html=1;fontFamily=Helvetica;fontSize=12;fontColor=default;labelBackgroundColor=default;" vertex="1" parent="yMqqP-uW__0DjXW2lb2f-116">
          <mxGeometry width="30" height="30" as="geometry">
            <mxRectangle width="30" height="30" as="alternateBounds" />
          </mxGeometry>
        </mxCell>
        <mxCell id="yMqqP-uW__0DjXW2lb2f-118" value="학번" style="shape=partialRectangle;connectable=0;fillColor=none;top=0;left=0;bottom=0;right=0;align=left;spacingLeft=6;fontStyle=5;overflow=hidden;whiteSpace=wrap;html=1;fontFamily=Helvetica;fontSize=12;fontColor=default;labelBackgroundColor=default;" vertex="1" parent="yMqqP-uW__0DjXW2lb2f-116">
          <mxGeometry x="30" width="122.5" height="30" as="geometry">
            <mxRectangle width="122.5" height="30" as="alternateBounds" />
          </mxGeometry>
        </mxCell>
        <mxCell id="yMqqP-uW__0DjXW2lb2f-119" value="" style="shape=tableRow;horizontal=0;startSize=0;swimlaneHead=0;swimlaneBody=0;fillColor=none;collapsible=0;dropTarget=0;points=[[0,0.5],[1,0.5]];portConstraint=eastwest;top=0;left=0;right=0;bottom=0;fontFamily=Helvetica;fontSize=12;fontColor=default;labelBackgroundColor=default;" vertex="1" parent="yMqqP-uW__0DjXW2lb2f-115">
          <mxGeometry y="60" width="152.5" height="30" as="geometry" />
        </mxCell>
        <mxCell id="yMqqP-uW__0DjXW2lb2f-120" value="" style="shape=partialRectangle;connectable=0;fillColor=none;top=0;left=0;bottom=0;right=0;editable=1;overflow=hidden;whiteSpace=wrap;html=1;fontFamily=Helvetica;fontSize=12;fontColor=default;labelBackgroundColor=default;" vertex="1" parent="yMqqP-uW__0DjXW2lb2f-119">
          <mxGeometry width="30" height="30" as="geometry">
            <mxRectangle width="30" height="30" as="alternateBounds" />
          </mxGeometry>
        </mxCell>
        <mxCell id="yMqqP-uW__0DjXW2lb2f-121" value="이름" style="shape=partialRectangle;connectable=0;fillColor=none;top=0;left=0;bottom=0;right=0;align=left;spacingLeft=6;overflow=hidden;whiteSpace=wrap;html=1;fontFamily=Helvetica;fontSize=12;fontColor=default;labelBackgroundColor=default;" vertex="1" parent="yMqqP-uW__0DjXW2lb2f-119">
          <mxGeometry x="30" width="122.5" height="30" as="geometry">
            <mxRectangle width="122.5" height="30" as="alternateBounds" />
          </mxGeometry>
        </mxCell>
        <mxCell id="yMqqP-uW__0DjXW2lb2f-122" value="" style="shape=tableRow;horizontal=0;startSize=0;swimlaneHead=0;swimlaneBody=0;fillColor=none;collapsible=0;dropTarget=0;points=[[0,0.5],[1,0.5]];portConstraint=eastwest;top=0;left=0;right=0;bottom=0;fontFamily=Helvetica;fontSize=12;fontColor=default;labelBackgroundColor=default;" vertex="1" parent="yMqqP-uW__0DjXW2lb2f-115">
          <mxGeometry y="90" width="152.5" height="33" as="geometry" />
        </mxCell>
        <mxCell id="yMqqP-uW__0DjXW2lb2f-123" value="" style="shape=partialRectangle;connectable=0;fillColor=none;top=0;left=0;bottom=0;right=0;editable=1;overflow=hidden;whiteSpace=wrap;html=1;fontFamily=Helvetica;fontSize=12;fontColor=default;labelBackgroundColor=default;" vertex="1" parent="yMqqP-uW__0DjXW2lb2f-122">
          <mxGeometry width="30" height="33" as="geometry">
            <mxRectangle width="30" height="33" as="alternateBounds" />
          </mxGeometry>
        </mxCell>
        <mxCell id="yMqqP-uW__0DjXW2lb2f-124" value="" style="shape=partialRectangle;connectable=0;fillColor=none;top=0;left=0;bottom=0;right=0;align=left;spacingLeft=6;overflow=hidden;whiteSpace=wrap;html=1;fontFamily=Helvetica;fontSize=12;fontColor=default;labelBackgroundColor=default;" vertex="1" parent="yMqqP-uW__0DjXW2lb2f-122">
          <mxGeometry x="30" width="122.5" height="33" as="geometry">
            <mxRectangle width="122.5" height="33" as="alternateBounds" />
          </mxGeometry>
        </mxCell>
        <mxCell id="yMqqP-uW__0DjXW2lb2f-125" value="" style="shape=tableRow;horizontal=0;startSize=0;swimlaneHead=0;swimlaneBody=0;fillColor=none;collapsible=0;dropTarget=0;points=[[0,0.5],[1,0.5]];portConstraint=eastwest;top=0;left=0;right=0;bottom=0;fontFamily=Helvetica;fontSize=12;fontColor=default;labelBackgroundColor=default;" vertex="1" parent="1">
          <mxGeometry x="929" y="1113" width="143" height="30" as="geometry" />
        </mxCell>
        <mxCell id="yMqqP-uW__0DjXW2lb2f-128" value="이진 1:1 관계: 양쪽 모두 외래키를 두는 방법 매핑 가능&amp;nbsp;" style="text;html=1;align=center;verticalAlign=middle;resizable=0;points=[];autosize=1;strokeColor=none;fillColor=none;fontSize=15;fontFamily=Helvetica;fontColor=default;labelBackgroundColor=default;" vertex="1" parent="1">
          <mxGeometry x="-160" y="818" width="385" height="30" as="geometry" />
        </mxCell>
        <mxCell id="yMqqP-uW__0DjXW2lb2f-130" value="&lt;div&gt;&lt;span style=&quot;font-size: 14px;&quot;&gt;✔참조 방향&lt;/span&gt;&lt;/div&gt;&lt;font style=&quot;font-size: 14px;&quot;&gt;1) 오른쪽 개체 기준으로 외래키 참조&lt;/font&gt;&lt;div style=&quot;font-size: 14px;&quot;&gt;&lt;font style=&quot;font-size: 14px;&quot;&gt;2) 왼쪽 개체 기준으로 외래키 참조&lt;/font&gt;&lt;/div&gt;&lt;div style=&quot;font-size: 14px;&quot;&gt;&lt;font style=&quot;font-size: 14px;&quot;&gt;3) 단일 릴레이션(테이블) 통합&lt;/font&gt;&lt;/div&gt;&lt;div style=&quot;font-size: 14px;&quot;&gt;&lt;font style=&quot;font-size: 14px;&quot;&gt;4) 오른쪽, 왼쪽, 관계 모두 테이블로 표현&lt;/font&gt;&lt;/div&gt;&lt;div style=&quot;font-size: 14px;&quot;&gt;&lt;font style=&quot;font-size: 14px;&quot;&gt;&lt;br&gt;&lt;/font&gt;&lt;/div&gt;&lt;div style=&quot;font-size: 14px;&quot;&gt;&lt;font style=&quot;font-size: 14px;&quot;&gt;모든 방법이 사용 가능하지만, 일반적으로 튜플 수가 많은 쪽에 외래키를&amp;nbsp; 둔다.&amp;nbsp;&amp;nbsp;&lt;/font&gt;&lt;/div&gt;" style="text;html=1;align=left;verticalAlign=middle;resizable=0;points=[];autosize=1;strokeColor=#666666;fillColor=#f5f5f5;fontSize=12;fontFamily=Helvetica;labelBackgroundColor=none;fontColor=#333333;" vertex="1" parent="1">
          <mxGeometry x="-431.94" y="1130" width="510" height="130" as="geometry" />
        </mxCell>
        <mxCell id="yMqqP-uW__0DjXW2lb2f-131" value="" style="verticalLabelPosition=bottom;verticalAlign=top;html=1;strokeWidth=2;shape=mxgraph.arrows2.arrow;dy=0.6;dx=40;notch=0;fontFamily=Helvetica;fontSize=12;fontColor=default;labelBackgroundColor=default;" vertex="1" parent="1">
          <mxGeometry x="467" y="923" width="148" height="53.5" as="geometry" />
        </mxCell>
        <mxCell id="yMqqP-uW__0DjXW2lb2f-147" value="수업" style="shape=rhombus;perimeter=rhombusPerimeter;whiteSpace=wrap;html=1;align=center;" vertex="1" parent="1">
          <mxGeometry x="-86.82" y="1446" width="206.88" height="101" as="geometry" />
        </mxCell>
        <mxCell id="yMqqP-uW__0DjXW2lb2f-148" value="과목" style="whiteSpace=wrap;html=1;align=center;" vertex="1" parent="1">
          <mxGeometry x="219.06" y="1455.75" width="159" height="81.5" as="geometry" />
        </mxCell>
        <mxCell id="yMqqP-uW__0DjXW2lb2f-149" value="학생" style="whiteSpace=wrap;html=1;align=center;" vertex="1" parent="1">
          <mxGeometry x="-339.94000000000005" y="1459" width="159" height="81.5" as="geometry" />
        </mxCell>
        <mxCell id="yMqqP-uW__0DjXW2lb2f-150" value="" style="endArrow=none;html=1;rounded=0;fontSize=12;startSize=8;endSize=8;curved=1;" edge="1" parent="1">
          <mxGeometry relative="1" as="geometry">
            <mxPoint x="-180.94" y="1496.21" as="sourcePoint" />
            <mxPoint x="-83.5" y="1496" as="targetPoint" />
          </mxGeometry>
        </mxCell>
        <mxCell id="yMqqP-uW__0DjXW2lb2f-151" value="N" style="resizable=0;html=1;whiteSpace=wrap;align=right;verticalAlign=bottom;" connectable="0" vertex="1" parent="yMqqP-uW__0DjXW2lb2f-150">
          <mxGeometry x="1" relative="1" as="geometry">
            <mxPoint x="-84" as="offset" />
          </mxGeometry>
        </mxCell>
        <mxCell id="yMqqP-uW__0DjXW2lb2f-152" value="" style="endArrow=none;html=1;rounded=0;fontSize=12;startSize=8;endSize=8;curved=1;" edge="1" parent="1">
          <mxGeometry relative="1" as="geometry">
            <mxPoint x="120.06" y="1496.1599999999999" as="sourcePoint" />
            <mxPoint x="217.50000000000006" y="1498" as="targetPoint" />
          </mxGeometry>
        </mxCell>
        <mxCell id="yMqqP-uW__0DjXW2lb2f-153" value="M" style="resizable=0;html=1;whiteSpace=wrap;align=left;verticalAlign=bottom;" connectable="0" vertex="1" parent="yMqqP-uW__0DjXW2lb2f-152">
          <mxGeometry x="-1" relative="1" as="geometry">
            <mxPoint x="82" as="offset" />
          </mxGeometry>
        </mxCell>
        <mxCell id="yMqqP-uW__0DjXW2lb2f-154" value="" style="edgeStyle=none;curved=1;rounded=0;orthogonalLoop=1;jettySize=auto;html=1;strokeColor=default;align=center;verticalAlign=middle;fontFamily=Helvetica;fontSize=12;fontColor=default;labelBackgroundColor=default;startSize=8;endArrow=none;endSize=8;endFill=0;" edge="1" parent="1" source="yMqqP-uW__0DjXW2lb2f-155" target="yMqqP-uW__0DjXW2lb2f-149">
          <mxGeometry relative="1" as="geometry" />
        </mxCell>
        <mxCell id="yMqqP-uW__0DjXW2lb2f-155" value="이름" style="ellipse;whiteSpace=wrap;html=1;align=center;" vertex="1" parent="1">
          <mxGeometry x="-431.94" y="1589" width="129" height="61" as="geometry" />
        </mxCell>
        <mxCell id="yMqqP-uW__0DjXW2lb2f-156" value="" style="edgeStyle=none;curved=1;rounded=0;orthogonalLoop=1;jettySize=auto;html=1;strokeColor=default;align=center;verticalAlign=middle;fontFamily=Helvetica;fontSize=12;fontColor=default;labelBackgroundColor=default;startSize=8;endArrow=none;endSize=8;endFill=0;entryX=0.672;entryY=0.988;entryDx=0;entryDy=0;entryPerimeter=0;" edge="1" parent="1" source="yMqqP-uW__0DjXW2lb2f-157" target="yMqqP-uW__0DjXW2lb2f-149">
          <mxGeometry relative="1" as="geometry">
            <mxPoint x="-160.94" y="1541" as="targetPoint" />
          </mxGeometry>
        </mxCell>
        <mxCell id="yMqqP-uW__0DjXW2lb2f-157" value="학번" style="ellipse;whiteSpace=wrap;html=1;align=center;" vertex="1" parent="1">
          <mxGeometry x="-235.94" y="1589" width="129" height="61" as="geometry" />
        </mxCell>
        <mxCell id="yMqqP-uW__0DjXW2lb2f-158" value="" style="edgeStyle=none;curved=1;rounded=0;orthogonalLoop=1;jettySize=auto;html=1;strokeColor=default;align=center;verticalAlign=middle;fontFamily=Helvetica;fontSize=12;fontColor=default;labelBackgroundColor=default;startSize=8;endArrow=none;endSize=8;endFill=0;" edge="1" parent="1" source="yMqqP-uW__0DjXW2lb2f-159">
          <mxGeometry relative="1" as="geometry">
            <mxPoint x="268.06" y="1537.25" as="targetPoint" />
          </mxGeometry>
        </mxCell>
        <mxCell id="yMqqP-uW__0DjXW2lb2f-159" value="&lt;u&gt;과목 코드&lt;/u&gt;" style="ellipse;whiteSpace=wrap;html=1;align=center;" vertex="1" parent="1">
          <mxGeometry x="133.06" y="1585.25" width="129" height="61" as="geometry" />
        </mxCell>
        <mxCell id="yMqqP-uW__0DjXW2lb2f-160" value="" style="edgeStyle=none;curved=1;rounded=0;orthogonalLoop=1;jettySize=auto;html=1;strokeColor=default;align=center;verticalAlign=middle;fontFamily=Helvetica;fontSize=12;fontColor=default;labelBackgroundColor=default;startSize=8;endArrow=none;endSize=8;endFill=0;" edge="1" parent="1" source="yMqqP-uW__0DjXW2lb2f-161" target="yMqqP-uW__0DjXW2lb2f-148">
          <mxGeometry relative="1" as="geometry">
            <mxPoint x="429.06" y="1537.25" as="targetPoint" />
          </mxGeometry>
        </mxCell>
        <mxCell id="yMqqP-uW__0DjXW2lb2f-161" value="과목명" style="ellipse;whiteSpace=wrap;html=1;align=center;" vertex="1" parent="1">
          <mxGeometry x="312.06" y="1585.25" width="129" height="61" as="geometry" />
        </mxCell>
        <mxCell id="yMqqP-uW__0DjXW2lb2f-162" value="과목" style="shape=table;startSize=30;container=1;collapsible=1;childLayout=tableLayout;fixedRows=1;rowLines=0;fontStyle=1;align=center;resizeLast=1;html=1;fontFamily=Helvetica;fontSize=12;fontColor=default;labelBackgroundColor=default;" vertex="1" parent="1">
          <mxGeometry x="917.5" y="1437.25" width="149.26" height="89.75" as="geometry" />
        </mxCell>
        <mxCell id="yMqqP-uW__0DjXW2lb2f-163" value="" style="shape=tableRow;horizontal=0;startSize=0;swimlaneHead=0;swimlaneBody=0;fillColor=none;collapsible=0;dropTarget=0;points=[[0,0.5],[1,0.5]];portConstraint=eastwest;top=0;left=0;right=0;bottom=1;fontFamily=Helvetica;fontSize=12;fontColor=default;labelBackgroundColor=default;" vertex="1" parent="yMqqP-uW__0DjXW2lb2f-162">
          <mxGeometry y="30" width="149.26" height="30" as="geometry" />
        </mxCell>
        <mxCell id="yMqqP-uW__0DjXW2lb2f-164" value="PK" style="shape=partialRectangle;connectable=0;fillColor=none;top=0;left=0;bottom=0;right=0;fontStyle=1;overflow=hidden;whiteSpace=wrap;html=1;fontFamily=Helvetica;fontSize=12;fontColor=default;labelBackgroundColor=default;" vertex="1" parent="yMqqP-uW__0DjXW2lb2f-163">
          <mxGeometry width="30.09375" height="30" as="geometry">
            <mxRectangle width="30.09375" height="30" as="alternateBounds" />
          </mxGeometry>
        </mxCell>
        <mxCell id="yMqqP-uW__0DjXW2lb2f-165" value="과목코드" style="shape=partialRectangle;connectable=0;fillColor=none;top=0;left=0;bottom=0;right=0;align=left;spacingLeft=6;fontStyle=5;overflow=hidden;whiteSpace=wrap;html=1;fontFamily=Helvetica;fontSize=12;fontColor=default;labelBackgroundColor=default;" vertex="1" parent="yMqqP-uW__0DjXW2lb2f-163">
          <mxGeometry x="30.09375" width="119.16624999999999" height="30" as="geometry">
            <mxRectangle width="119.16624999999999" height="30" as="alternateBounds" />
          </mxGeometry>
        </mxCell>
        <mxCell id="yMqqP-uW__0DjXW2lb2f-166" value="" style="shape=tableRow;horizontal=0;startSize=0;swimlaneHead=0;swimlaneBody=0;fillColor=none;collapsible=0;dropTarget=0;points=[[0,0.5],[1,0.5]];portConstraint=eastwest;top=0;left=0;right=0;bottom=0;fontFamily=Helvetica;fontSize=12;fontColor=default;labelBackgroundColor=default;" vertex="1" parent="yMqqP-uW__0DjXW2lb2f-162">
          <mxGeometry y="60" width="149.26" height="29" as="geometry" />
        </mxCell>
        <mxCell id="yMqqP-uW__0DjXW2lb2f-167" value="" style="shape=partialRectangle;connectable=0;fillColor=none;top=0;left=0;bottom=0;right=0;editable=1;overflow=hidden;whiteSpace=wrap;html=1;fontFamily=Helvetica;fontSize=12;fontColor=default;labelBackgroundColor=default;" vertex="1" parent="yMqqP-uW__0DjXW2lb2f-166">
          <mxGeometry width="30.09375" height="29" as="geometry">
            <mxRectangle width="30.09375" height="29" as="alternateBounds" />
          </mxGeometry>
        </mxCell>
        <mxCell id="yMqqP-uW__0DjXW2lb2f-168" value="과목명" style="shape=partialRectangle;connectable=0;fillColor=none;top=0;left=0;bottom=0;right=0;align=left;spacingLeft=6;overflow=hidden;whiteSpace=wrap;html=1;fontFamily=Helvetica;fontSize=12;fontColor=default;labelBackgroundColor=default;" vertex="1" parent="yMqqP-uW__0DjXW2lb2f-166">
          <mxGeometry x="30.09375" width="119.16624999999999" height="29" as="geometry">
            <mxRectangle width="119.16624999999999" height="29" as="alternateBounds" />
          </mxGeometry>
        </mxCell>
        <mxCell id="yMqqP-uW__0DjXW2lb2f-169" value="교수" style="shape=table;startSize=30;container=1;collapsible=1;childLayout=tableLayout;fixedRows=1;rowLines=0;fontStyle=1;align=center;resizeLast=1;html=1;fontFamily=Helvetica;fontSize=12;fontColor=default;labelBackgroundColor=default;" vertex="1" parent="1">
          <mxGeometry x="719" y="1439.25" width="152.5" height="90" as="geometry" />
        </mxCell>
        <mxCell id="yMqqP-uW__0DjXW2lb2f-170" value="" style="shape=tableRow;horizontal=0;startSize=0;swimlaneHead=0;swimlaneBody=0;fillColor=none;collapsible=0;dropTarget=0;points=[[0,0.5],[1,0.5]];portConstraint=eastwest;top=0;left=0;right=0;bottom=1;fontFamily=Helvetica;fontSize=12;fontColor=default;labelBackgroundColor=default;" vertex="1" parent="yMqqP-uW__0DjXW2lb2f-169">
          <mxGeometry y="30" width="152.5" height="30" as="geometry" />
        </mxCell>
        <mxCell id="yMqqP-uW__0DjXW2lb2f-171" value="PK" style="shape=partialRectangle;connectable=0;fillColor=none;top=0;left=0;bottom=0;right=0;fontStyle=1;overflow=hidden;whiteSpace=wrap;html=1;fontFamily=Helvetica;fontSize=12;fontColor=default;labelBackgroundColor=default;" vertex="1" parent="yMqqP-uW__0DjXW2lb2f-170">
          <mxGeometry width="30" height="30" as="geometry">
            <mxRectangle width="30" height="30" as="alternateBounds" />
          </mxGeometry>
        </mxCell>
        <mxCell id="yMqqP-uW__0DjXW2lb2f-172" value="사번" style="shape=partialRectangle;connectable=0;fillColor=none;top=0;left=0;bottom=0;right=0;align=left;spacingLeft=6;fontStyle=5;overflow=hidden;whiteSpace=wrap;html=1;fontFamily=Helvetica;fontSize=12;fontColor=default;labelBackgroundColor=default;" vertex="1" parent="yMqqP-uW__0DjXW2lb2f-170">
          <mxGeometry x="30" width="122.5" height="30" as="geometry">
            <mxRectangle width="122.5" height="30" as="alternateBounds" />
          </mxGeometry>
        </mxCell>
        <mxCell id="yMqqP-uW__0DjXW2lb2f-173" value="" style="shape=tableRow;horizontal=0;startSize=0;swimlaneHead=0;swimlaneBody=0;fillColor=none;collapsible=0;dropTarget=0;points=[[0,0.5],[1,0.5]];portConstraint=eastwest;top=0;left=0;right=0;bottom=0;fontFamily=Helvetica;fontSize=12;fontColor=default;labelBackgroundColor=default;" vertex="1" parent="yMqqP-uW__0DjXW2lb2f-169">
          <mxGeometry y="60" width="152.5" height="30" as="geometry" />
        </mxCell>
        <mxCell id="yMqqP-uW__0DjXW2lb2f-174" value="" style="shape=partialRectangle;connectable=0;fillColor=none;top=0;left=0;bottom=0;right=0;editable=1;overflow=hidden;whiteSpace=wrap;html=1;fontFamily=Helvetica;fontSize=12;fontColor=default;labelBackgroundColor=default;" vertex="1" parent="yMqqP-uW__0DjXW2lb2f-173">
          <mxGeometry width="30" height="30" as="geometry">
            <mxRectangle width="30" height="30" as="alternateBounds" />
          </mxGeometry>
        </mxCell>
        <mxCell id="yMqqP-uW__0DjXW2lb2f-175" value="이름" style="shape=partialRectangle;connectable=0;fillColor=none;top=0;left=0;bottom=0;right=0;align=left;spacingLeft=6;overflow=hidden;whiteSpace=wrap;html=1;fontFamily=Helvetica;fontSize=12;fontColor=default;labelBackgroundColor=default;" vertex="1" parent="yMqqP-uW__0DjXW2lb2f-173">
          <mxGeometry x="30" width="122.5" height="30" as="geometry">
            <mxRectangle width="122.5" height="30" as="alternateBounds" />
          </mxGeometry>
        </mxCell>
        <mxCell id="yMqqP-uW__0DjXW2lb2f-179" value="" style="shape=tableRow;horizontal=0;startSize=0;swimlaneHead=0;swimlaneBody=0;fillColor=none;collapsible=0;dropTarget=0;points=[[0,0.5],[1,0.5]];portConstraint=eastwest;top=0;left=0;right=0;bottom=0;fontFamily=Helvetica;fontSize=12;fontColor=default;labelBackgroundColor=default;" vertex="1" parent="1">
          <mxGeometry x="923.5" y="1530.25" width="143" height="30" as="geometry" />
        </mxCell>
        <mxCell id="yMqqP-uW__0DjXW2lb2f-186" value="수업" style="shape=table;startSize=30;container=1;collapsible=1;childLayout=tableLayout;fixedRows=1;rowLines=0;fontStyle=1;align=center;resizeLast=1;html=1;fontFamily=Helvetica;fontSize=12;fontColor=default;labelBackgroundColor=default;" vertex="1" parent="1">
          <mxGeometry x="822.25" y="1585.25" width="152.5" height="90" as="geometry" />
        </mxCell>
        <mxCell id="yMqqP-uW__0DjXW2lb2f-187" value="" style="shape=tableRow;horizontal=0;startSize=0;swimlaneHead=0;swimlaneBody=0;fillColor=none;collapsible=0;dropTarget=0;points=[[0,0.5],[1,0.5]];portConstraint=eastwest;top=0;left=0;right=0;bottom=1;fontFamily=Helvetica;fontSize=12;fontColor=default;labelBackgroundColor=default;" vertex="1" parent="yMqqP-uW__0DjXW2lb2f-186">
          <mxGeometry y="30" width="152.5" height="30" as="geometry" />
        </mxCell>
        <mxCell id="yMqqP-uW__0DjXW2lb2f-188" value="PK" style="shape=partialRectangle;connectable=0;fillColor=none;top=0;left=0;bottom=0;right=0;fontStyle=1;overflow=hidden;whiteSpace=wrap;html=1;fontFamily=Helvetica;fontSize=12;fontColor=default;labelBackgroundColor=default;" vertex="1" parent="yMqqP-uW__0DjXW2lb2f-187">
          <mxGeometry width="30" height="30" as="geometry">
            <mxRectangle width="30" height="30" as="alternateBounds" />
          </mxGeometry>
        </mxCell>
        <mxCell id="yMqqP-uW__0DjXW2lb2f-189" value="사번" style="shape=partialRectangle;connectable=0;fillColor=none;top=0;left=0;bottom=0;right=0;align=left;spacingLeft=6;fontStyle=5;overflow=hidden;whiteSpace=wrap;html=1;fontFamily=Helvetica;fontSize=12;fontColor=default;labelBackgroundColor=default;" vertex="1" parent="yMqqP-uW__0DjXW2lb2f-187">
          <mxGeometry x="30" width="122.5" height="30" as="geometry">
            <mxRectangle width="122.5" height="30" as="alternateBounds" />
          </mxGeometry>
        </mxCell>
        <mxCell id="yMqqP-uW__0DjXW2lb2f-190" value="" style="shape=tableRow;horizontal=0;startSize=0;swimlaneHead=0;swimlaneBody=0;fillColor=none;collapsible=0;dropTarget=0;points=[[0,0.5],[1,0.5]];portConstraint=eastwest;top=0;left=0;right=0;bottom=0;fontFamily=Helvetica;fontSize=12;fontColor=default;labelBackgroundColor=default;" vertex="1" parent="yMqqP-uW__0DjXW2lb2f-186">
          <mxGeometry y="60" width="152.5" height="30" as="geometry" />
        </mxCell>
        <mxCell id="yMqqP-uW__0DjXW2lb2f-191" value="&lt;b&gt;FK&lt;/b&gt;" style="shape=partialRectangle;connectable=0;fillColor=none;top=0;left=0;bottom=0;right=0;editable=1;overflow=hidden;whiteSpace=wrap;html=1;fontFamily=Helvetica;fontSize=12;fontColor=default;labelBackgroundColor=default;" vertex="1" parent="yMqqP-uW__0DjXW2lb2f-190">
          <mxGeometry width="30" height="30" as="geometry">
            <mxRectangle width="30" height="30" as="alternateBounds" />
          </mxGeometry>
        </mxCell>
        <mxCell id="yMqqP-uW__0DjXW2lb2f-192" value="&lt;u&gt;&lt;b&gt;과목코드&lt;/b&gt;&lt;/u&gt;" style="shape=partialRectangle;connectable=0;fillColor=none;top=0;left=0;bottom=0;right=0;align=left;spacingLeft=6;overflow=hidden;whiteSpace=wrap;html=1;fontFamily=Helvetica;fontSize=12;fontColor=default;labelBackgroundColor=default;" vertex="1" parent="yMqqP-uW__0DjXW2lb2f-190">
          <mxGeometry x="30" width="122.5" height="30" as="geometry">
            <mxRectangle width="122.5" height="30" as="alternateBounds" />
          </mxGeometry>
        </mxCell>
        <mxCell id="yMqqP-uW__0DjXW2lb2f-193" value="&lt;font style=&quot;font-size: 14px;&quot;&gt;N:M 관계의 경우 양 쪽 모두 (many) 수를 가짐으로 관계에서 새로운 릴레이션을 생성해야함&lt;/font&gt;&lt;div style=&quot;font-size: 14px;&quot;&gt;&lt;font style=&quot;font-size: 14px;&quot;&gt;- 교차 릴레이션(교차 테이블)&lt;/font&gt;&lt;/div&gt;" style="text;html=1;align=left;verticalAlign=middle;resizable=0;points=[];autosize=1;strokeColor=#666666;fillColor=#f5f5f5;fontSize=12;fontFamily=Helvetica;fontColor=#333333;labelBackgroundColor=none;" vertex="1" parent="1">
          <mxGeometry x="-444" y="1719" width="582" height="46" as="geometry" />
        </mxCell>
        <mxCell id="yMqqP-uW__0DjXW2lb2f-194" value="" style="verticalLabelPosition=bottom;verticalAlign=top;html=1;strokeWidth=2;shape=mxgraph.arrows2.arrow;dy=0.6;dx=40;notch=0;fontFamily=Helvetica;fontSize=12;fontColor=default;labelBackgroundColor=default;" vertex="1" parent="1">
          <mxGeometry x="475" y="1513" width="148" height="53.5" as="geometry" />
        </mxCell>
        <mxCell id="yMqqP-uW__0DjXW2lb2f-208" value="학생" style="shape=table;startSize=30;container=1;collapsible=1;childLayout=tableLayout;fixedRows=1;rowLines=0;fontStyle=1;align=center;resizeLast=1;html=1;fontFamily=Helvetica;fontSize=12;fontColor=default;labelBackgroundColor=default;" vertex="1" parent="1">
          <mxGeometry x="941" y="1025" width="137" height="120" as="geometry" />
        </mxCell>
        <mxCell id="yMqqP-uW__0DjXW2lb2f-209" value="" style="shape=tableRow;horizontal=0;startSize=0;swimlaneHead=0;swimlaneBody=0;fillColor=none;collapsible=0;dropTarget=0;points=[[0,0.5],[1,0.5]];portConstraint=eastwest;top=0;left=0;right=0;bottom=1;fontFamily=Helvetica;fontSize=12;fontColor=default;labelBackgroundColor=default;" vertex="1" parent="yMqqP-uW__0DjXW2lb2f-208">
          <mxGeometry y="30" width="137" height="30" as="geometry" />
        </mxCell>
        <mxCell id="yMqqP-uW__0DjXW2lb2f-210" value="PK" style="shape=partialRectangle;connectable=0;fillColor=none;top=0;left=0;bottom=0;right=0;fontStyle=1;overflow=hidden;whiteSpace=wrap;html=1;fontFamily=Helvetica;fontSize=12;fontColor=default;labelBackgroundColor=default;" vertex="1" parent="yMqqP-uW__0DjXW2lb2f-209">
          <mxGeometry width="30" height="30" as="geometry">
            <mxRectangle width="30" height="30" as="alternateBounds" />
          </mxGeometry>
        </mxCell>
        <mxCell id="yMqqP-uW__0DjXW2lb2f-211" value="컴퓨터번호" style="shape=partialRectangle;connectable=0;fillColor=none;top=0;left=0;bottom=0;right=0;align=left;spacingLeft=6;fontStyle=5;overflow=hidden;whiteSpace=wrap;html=1;fontFamily=Helvetica;fontSize=12;fontColor=default;labelBackgroundColor=default;" vertex="1" parent="yMqqP-uW__0DjXW2lb2f-209">
          <mxGeometry x="30" width="107" height="30" as="geometry">
            <mxRectangle width="107" height="30" as="alternateBounds" />
          </mxGeometry>
        </mxCell>
        <mxCell id="yMqqP-uW__0DjXW2lb2f-212" value="" style="shape=tableRow;horizontal=0;startSize=0;swimlaneHead=0;swimlaneBody=0;fillColor=none;collapsible=0;dropTarget=0;points=[[0,0.5],[1,0.5]];portConstraint=eastwest;top=0;left=0;right=0;bottom=0;fontFamily=Helvetica;fontSize=12;fontColor=default;labelBackgroundColor=default;" vertex="1" parent="yMqqP-uW__0DjXW2lb2f-208">
          <mxGeometry y="60" width="137" height="30" as="geometry" />
        </mxCell>
        <mxCell id="yMqqP-uW__0DjXW2lb2f-213" value="" style="shape=partialRectangle;connectable=0;fillColor=none;top=0;left=0;bottom=0;right=0;editable=1;overflow=hidden;whiteSpace=wrap;html=1;fontFamily=Helvetica;fontSize=12;fontColor=default;labelBackgroundColor=default;" vertex="1" parent="yMqqP-uW__0DjXW2lb2f-212">
          <mxGeometry width="30" height="30" as="geometry">
            <mxRectangle width="30" height="30" as="alternateBounds" />
          </mxGeometry>
        </mxCell>
        <mxCell id="yMqqP-uW__0DjXW2lb2f-214" value="사양" style="shape=partialRectangle;connectable=0;fillColor=none;top=0;left=0;bottom=0;right=0;align=left;spacingLeft=6;overflow=hidden;whiteSpace=wrap;html=1;fontFamily=Helvetica;fontSize=12;fontColor=default;labelBackgroundColor=default;" vertex="1" parent="yMqqP-uW__0DjXW2lb2f-212">
          <mxGeometry x="30" width="107" height="30" as="geometry">
            <mxRectangle width="107" height="30" as="alternateBounds" />
          </mxGeometry>
        </mxCell>
        <mxCell id="yMqqP-uW__0DjXW2lb2f-215" value="" style="shape=tableRow;horizontal=0;startSize=0;swimlaneHead=0;swimlaneBody=0;fillColor=none;collapsible=0;dropTarget=0;points=[[0,0.5],[1,0.5]];portConstraint=eastwest;top=0;left=0;right=0;bottom=0;fontFamily=Helvetica;fontSize=12;fontColor=default;labelBackgroundColor=default;" vertex="1" parent="yMqqP-uW__0DjXW2lb2f-208">
          <mxGeometry y="90" width="137" height="30" as="geometry" />
        </mxCell>
        <mxCell id="yMqqP-uW__0DjXW2lb2f-216" value="FK" style="shape=partialRectangle;connectable=0;fillColor=none;top=0;left=0;bottom=0;right=0;editable=1;overflow=hidden;whiteSpace=wrap;html=1;fontFamily=Helvetica;fontSize=12;fontColor=default;labelBackgroundColor=default;" vertex="1" parent="yMqqP-uW__0DjXW2lb2f-215">
          <mxGeometry width="30" height="30" as="geometry">
            <mxRectangle width="30" height="30" as="alternateBounds" />
          </mxGeometry>
        </mxCell>
        <mxCell id="yMqqP-uW__0DjXW2lb2f-217" value="학번" style="shape=partialRectangle;connectable=0;fillColor=none;top=0;left=0;bottom=0;right=0;align=left;spacingLeft=6;overflow=hidden;whiteSpace=wrap;html=1;fontFamily=Helvetica;fontSize=12;fontColor=default;labelBackgroundColor=default;" vertex="1" parent="yMqqP-uW__0DjXW2lb2f-215">
          <mxGeometry x="30" width="107" height="30" as="geometry">
            <mxRectangle width="107" height="30" as="alternateBounds" />
          </mxGeometry>
        </mxCell>
        <mxCell id="yMqqP-uW__0DjXW2lb2f-225" value="" style="edgeStyle=none;curved=1;rounded=0;orthogonalLoop=1;jettySize=auto;html=1;strokeColor=default;align=center;verticalAlign=middle;fontFamily=Helvetica;fontSize=12;fontColor=default;labelBackgroundColor=default;startSize=8;endArrow=none;endFill=0;endSize=8;" edge="1" parent="1" source="yMqqP-uW__0DjXW2lb2f-221" target="yMqqP-uW__0DjXW2lb2f-224">
          <mxGeometry relative="1" as="geometry" />
        </mxCell>
        <mxCell id="yMqqP-uW__0DjXW2lb2f-221" value="부양" style="shape=rhombus;double=1;perimeter=rhombusPerimeter;whiteSpace=wrap;html=1;align=center;fontFamily=Helvetica;fontSize=12;fontColor=default;labelBackgroundColor=default;" vertex="1" parent="1">
          <mxGeometry x="112" y="2270" width="241" height="128" as="geometry" />
        </mxCell>
        <mxCell id="yMqqP-uW__0DjXW2lb2f-223" value="" style="edgeStyle=none;curved=1;rounded=0;orthogonalLoop=1;jettySize=auto;html=1;strokeColor=default;align=center;verticalAlign=middle;fontFamily=Helvetica;fontSize=12;fontColor=default;labelBackgroundColor=default;startSize=8;endArrow=none;endFill=0;endSize=8;" edge="1" parent="1" source="yMqqP-uW__0DjXW2lb2f-222" target="yMqqP-uW__0DjXW2lb2f-221">
          <mxGeometry relative="1" as="geometry" />
        </mxCell>
        <mxCell id="yMqqP-uW__0DjXW2lb2f-222" value="사원" style="whiteSpace=wrap;html=1;align=center;fontFamily=Helvetica;fontSize=12;fontColor=default;labelBackgroundColor=default;" vertex="1" parent="1">
          <mxGeometry x="140.5" y="2127" width="184" height="80" as="geometry" />
        </mxCell>
        <mxCell id="yMqqP-uW__0DjXW2lb2f-224" value="가족" style="shape=ext;margin=3;double=1;whiteSpace=wrap;html=1;align=center;fontFamily=Helvetica;fontSize=12;fontColor=default;labelBackgroundColor=default;" vertex="1" parent="1">
          <mxGeometry x="134.53000000000003" y="2473" width="195.94" height="94" as="geometry" />
        </mxCell>
        <mxCell id="yMqqP-uW__0DjXW2lb2f-226" value="1" style="resizable=0;html=1;whiteSpace=wrap;align=right;verticalAlign=bottom;" connectable="0" vertex="1" parent="1">
          <mxGeometry x="232.4975507010155" y="2233.9992725200404" as="geometry">
            <mxPoint x="13" y="12" as="offset" />
          </mxGeometry>
        </mxCell>
        <mxCell id="yMqqP-uW__0DjXW2lb2f-227" value="N" style="resizable=0;html=1;whiteSpace=wrap;align=right;verticalAlign=bottom;" connectable="0" vertex="1" parent="1">
          <mxGeometry x="258.9975507010155" y="2258.9992725200404" as="geometry">
            <mxPoint x="-9" y="185" as="offset" />
          </mxGeometry>
        </mxCell>
        <mxCell id="yMqqP-uW__0DjXW2lb2f-230" value="" style="strokeWidth=1;html=1;shape=mxgraph.flowchart.annotation_2;align=left;labelPosition=right;pointerEvents=1;fontFamily=Helvetica;fontSize=12;fontColor=default;labelBackgroundColor=default;rotation=-181;" vertex="1" parent="1">
          <mxGeometry x="90.5" y="2117" width="50" height="100" as="geometry" />
        </mxCell>
        <mxCell id="yMqqP-uW__0DjXW2lb2f-231" value="이름" style="ellipse;whiteSpace=wrap;html=1;align=center;fontFamily=Helvetica;fontSize=12;fontColor=default;labelBackgroundColor=default;" vertex="1" parent="1">
          <mxGeometry x="-27.5" y="2092" width="123" height="56" as="geometry" />
        </mxCell>
        <mxCell id="yMqqP-uW__0DjXW2lb2f-232" value="&lt;u&gt;사번&lt;/u&gt;" style="ellipse;whiteSpace=wrap;html=1;align=center;fontFamily=Helvetica;fontSize=12;fontColor=default;labelBackgroundColor=default;" vertex="1" parent="1">
          <mxGeometry x="-32.5" y="2190" width="123" height="56" as="geometry" />
        </mxCell>
        <mxCell id="yMqqP-uW__0DjXW2lb2f-234" value="" style="edgeStyle=none;curved=1;rounded=0;orthogonalLoop=1;jettySize=auto;html=1;strokeColor=default;align=center;verticalAlign=middle;fontFamily=Helvetica;fontSize=12;fontColor=default;labelBackgroundColor=default;startSize=8;endArrow=none;endFill=0;endSize=8;" edge="1" parent="1" source="yMqqP-uW__0DjXW2lb2f-233" target="yMqqP-uW__0DjXW2lb2f-224">
          <mxGeometry relative="1" as="geometry" />
        </mxCell>
        <mxCell id="yMqqP-uW__0DjXW2lb2f-233" value="이름" style="ellipse;whiteSpace=wrap;html=1;align=center;fontFamily=Helvetica;fontSize=12;fontColor=default;labelBackgroundColor=default;" vertex="1" parent="1">
          <mxGeometry x="-50" y="2480" width="145.5" height="80" as="geometry" />
        </mxCell>
        <mxCell id="yMqqP-uW__0DjXW2lb2f-248" value="가족" style="shape=table;startSize=30;container=1;collapsible=1;childLayout=tableLayout;fixedRows=1;rowLines=0;fontStyle=1;align=center;resizeLast=1;html=1;fontFamily=Helvetica;fontSize=12;fontColor=default;labelBackgroundColor=default;" vertex="1" parent="1">
          <mxGeometry x="780" y="2156" width="134" height="150" as="geometry" />
        </mxCell>
        <mxCell id="yMqqP-uW__0DjXW2lb2f-249" value="" style="shape=tableRow;horizontal=0;startSize=0;swimlaneHead=0;swimlaneBody=0;fillColor=none;collapsible=0;dropTarget=0;points=[[0,0.5],[1,0.5]];portConstraint=eastwest;top=0;left=0;right=0;bottom=1;fontFamily=Helvetica;fontSize=12;fontColor=default;labelBackgroundColor=default;" vertex="1" parent="yMqqP-uW__0DjXW2lb2f-248">
          <mxGeometry y="30" width="134" height="30" as="geometry" />
        </mxCell>
        <mxCell id="yMqqP-uW__0DjXW2lb2f-250" value="PK" style="shape=partialRectangle;connectable=0;fillColor=none;top=0;left=0;bottom=0;right=0;fontStyle=1;overflow=hidden;whiteSpace=wrap;html=1;fontFamily=Helvetica;fontSize=12;fontColor=default;labelBackgroundColor=default;" vertex="1" parent="yMqqP-uW__0DjXW2lb2f-249">
          <mxGeometry width="30" height="30" as="geometry">
            <mxRectangle width="30" height="30" as="alternateBounds" />
          </mxGeometry>
        </mxCell>
        <mxCell id="yMqqP-uW__0DjXW2lb2f-251" value="사번" style="shape=partialRectangle;connectable=0;fillColor=none;top=0;left=0;bottom=0;right=0;align=left;spacingLeft=6;fontStyle=5;overflow=hidden;whiteSpace=wrap;html=1;fontFamily=Helvetica;fontSize=12;fontColor=default;labelBackgroundColor=default;" vertex="1" parent="yMqqP-uW__0DjXW2lb2f-249">
          <mxGeometry x="30" width="104" height="30" as="geometry">
            <mxRectangle width="104" height="30" as="alternateBounds" />
          </mxGeometry>
        </mxCell>
        <mxCell id="yMqqP-uW__0DjXW2lb2f-252" value="" style="shape=tableRow;horizontal=0;startSize=0;swimlaneHead=0;swimlaneBody=0;fillColor=none;collapsible=0;dropTarget=0;points=[[0,0.5],[1,0.5]];portConstraint=eastwest;top=0;left=0;right=0;bottom=0;fontFamily=Helvetica;fontSize=12;fontColor=default;labelBackgroundColor=default;" vertex="1" parent="yMqqP-uW__0DjXW2lb2f-248">
          <mxGeometry y="60" width="134" height="30" as="geometry" />
        </mxCell>
        <mxCell id="yMqqP-uW__0DjXW2lb2f-253" value="PK" style="shape=partialRectangle;connectable=0;fillColor=none;top=0;left=0;bottom=0;right=0;editable=1;overflow=hidden;whiteSpace=wrap;html=1;fontFamily=Helvetica;fontSize=12;fontColor=default;labelBackgroundColor=default;" vertex="1" parent="yMqqP-uW__0DjXW2lb2f-252">
          <mxGeometry width="30" height="30" as="geometry">
            <mxRectangle width="30" height="30" as="alternateBounds" />
          </mxGeometry>
        </mxCell>
        <mxCell id="yMqqP-uW__0DjXW2lb2f-254" value="&lt;u&gt;이름&lt;/u&gt;" style="shape=partialRectangle;connectable=0;fillColor=none;top=0;left=0;bottom=0;right=0;align=left;spacingLeft=6;overflow=hidden;whiteSpace=wrap;html=1;fontFamily=Helvetica;fontSize=12;fontColor=default;labelBackgroundColor=default;" vertex="1" parent="yMqqP-uW__0DjXW2lb2f-252">
          <mxGeometry x="30" width="104" height="30" as="geometry">
            <mxRectangle width="104" height="30" as="alternateBounds" />
          </mxGeometry>
        </mxCell>
        <mxCell id="yMqqP-uW__0DjXW2lb2f-255" value="" style="shape=tableRow;horizontal=0;startSize=0;swimlaneHead=0;swimlaneBody=0;fillColor=none;collapsible=0;dropTarget=0;points=[[0,0.5],[1,0.5]];portConstraint=eastwest;top=0;left=0;right=0;bottom=0;fontFamily=Helvetica;fontSize=12;fontColor=default;labelBackgroundColor=default;" vertex="1" parent="yMqqP-uW__0DjXW2lb2f-248">
          <mxGeometry y="90" width="134" height="30" as="geometry" />
        </mxCell>
        <mxCell id="yMqqP-uW__0DjXW2lb2f-256" value="" style="shape=partialRectangle;connectable=0;fillColor=none;top=0;left=0;bottom=0;right=0;editable=1;overflow=hidden;whiteSpace=wrap;html=1;fontFamily=Helvetica;fontSize=12;fontColor=default;labelBackgroundColor=default;" vertex="1" parent="yMqqP-uW__0DjXW2lb2f-255">
          <mxGeometry width="30" height="30" as="geometry">
            <mxRectangle width="30" height="30" as="alternateBounds" />
          </mxGeometry>
        </mxCell>
        <mxCell id="yMqqP-uW__0DjXW2lb2f-257" value="" style="shape=partialRectangle;connectable=0;fillColor=none;top=0;left=0;bottom=0;right=0;align=left;spacingLeft=6;overflow=hidden;whiteSpace=wrap;html=1;fontFamily=Helvetica;fontSize=12;fontColor=default;labelBackgroundColor=default;" vertex="1" parent="yMqqP-uW__0DjXW2lb2f-255">
          <mxGeometry x="30" width="104" height="30" as="geometry">
            <mxRectangle width="104" height="30" as="alternateBounds" />
          </mxGeometry>
        </mxCell>
        <mxCell id="yMqqP-uW__0DjXW2lb2f-258" value="" style="shape=tableRow;horizontal=0;startSize=0;swimlaneHead=0;swimlaneBody=0;fillColor=none;collapsible=0;dropTarget=0;points=[[0,0.5],[1,0.5]];portConstraint=eastwest;top=0;left=0;right=0;bottom=0;fontFamily=Helvetica;fontSize=12;fontColor=default;labelBackgroundColor=default;" vertex="1" parent="yMqqP-uW__0DjXW2lb2f-248">
          <mxGeometry y="120" width="134" height="30" as="geometry" />
        </mxCell>
        <mxCell id="yMqqP-uW__0DjXW2lb2f-259" value="" style="shape=partialRectangle;connectable=0;fillColor=none;top=0;left=0;bottom=0;right=0;editable=1;overflow=hidden;whiteSpace=wrap;html=1;fontFamily=Helvetica;fontSize=12;fontColor=default;labelBackgroundColor=default;" vertex="1" parent="yMqqP-uW__0DjXW2lb2f-258">
          <mxGeometry width="30" height="30" as="geometry">
            <mxRectangle width="30" height="30" as="alternateBounds" />
          </mxGeometry>
        </mxCell>
        <mxCell id="yMqqP-uW__0DjXW2lb2f-260" value="" style="shape=partialRectangle;connectable=0;fillColor=none;top=0;left=0;bottom=0;right=0;align=left;spacingLeft=6;overflow=hidden;whiteSpace=wrap;html=1;fontFamily=Helvetica;fontSize=12;fontColor=default;labelBackgroundColor=default;" vertex="1" parent="yMqqP-uW__0DjXW2lb2f-258">
          <mxGeometry x="30" width="104" height="30" as="geometry">
            <mxRectangle width="104" height="30" as="alternateBounds" />
          </mxGeometry>
        </mxCell>
        <mxCell id="yMqqP-uW__0DjXW2lb2f-235" value="사원" style="shape=table;startSize=30;container=1;collapsible=1;childLayout=tableLayout;fixedRows=1;rowLines=0;fontStyle=1;align=center;resizeLast=1;html=1;fontFamily=Helvetica;fontSize=12;fontColor=default;labelBackgroundColor=default;" vertex="1" parent="1">
          <mxGeometry x="617" y="2156" width="126.94" height="150" as="geometry" />
        </mxCell>
        <mxCell id="yMqqP-uW__0DjXW2lb2f-236" value="" style="shape=tableRow;horizontal=0;startSize=0;swimlaneHead=0;swimlaneBody=0;fillColor=none;collapsible=0;dropTarget=0;points=[[0,0.5],[1,0.5]];portConstraint=eastwest;top=0;left=0;right=0;bottom=1;fontFamily=Helvetica;fontSize=12;fontColor=default;labelBackgroundColor=default;" vertex="1" parent="yMqqP-uW__0DjXW2lb2f-235">
          <mxGeometry y="30" width="126.94" height="30" as="geometry" />
        </mxCell>
        <mxCell id="yMqqP-uW__0DjXW2lb2f-237" value="PK" style="shape=partialRectangle;connectable=0;fillColor=none;top=0;left=0;bottom=0;right=0;fontStyle=1;overflow=hidden;whiteSpace=wrap;html=1;fontFamily=Helvetica;fontSize=12;fontColor=default;labelBackgroundColor=default;" vertex="1" parent="yMqqP-uW__0DjXW2lb2f-236">
          <mxGeometry width="30" height="30" as="geometry">
            <mxRectangle width="30" height="30" as="alternateBounds" />
          </mxGeometry>
        </mxCell>
        <mxCell id="yMqqP-uW__0DjXW2lb2f-238" value="사번" style="shape=partialRectangle;connectable=0;fillColor=none;top=0;left=0;bottom=0;right=0;align=left;spacingLeft=6;fontStyle=5;overflow=hidden;whiteSpace=wrap;html=1;fontFamily=Helvetica;fontSize=12;fontColor=default;labelBackgroundColor=default;" vertex="1" parent="yMqqP-uW__0DjXW2lb2f-236">
          <mxGeometry x="30" width="96.94" height="30" as="geometry">
            <mxRectangle width="96.94" height="30" as="alternateBounds" />
          </mxGeometry>
        </mxCell>
        <mxCell id="yMqqP-uW__0DjXW2lb2f-239" value="" style="shape=tableRow;horizontal=0;startSize=0;swimlaneHead=0;swimlaneBody=0;fillColor=none;collapsible=0;dropTarget=0;points=[[0,0.5],[1,0.5]];portConstraint=eastwest;top=0;left=0;right=0;bottom=0;fontFamily=Helvetica;fontSize=12;fontColor=default;labelBackgroundColor=default;" vertex="1" parent="yMqqP-uW__0DjXW2lb2f-235">
          <mxGeometry y="60" width="126.94" height="30" as="geometry" />
        </mxCell>
        <mxCell id="yMqqP-uW__0DjXW2lb2f-240" value="" style="shape=partialRectangle;connectable=0;fillColor=none;top=0;left=0;bottom=0;right=0;editable=1;overflow=hidden;whiteSpace=wrap;html=1;fontFamily=Helvetica;fontSize=12;fontColor=default;labelBackgroundColor=default;" vertex="1" parent="yMqqP-uW__0DjXW2lb2f-239">
          <mxGeometry width="30" height="30" as="geometry">
            <mxRectangle width="30" height="30" as="alternateBounds" />
          </mxGeometry>
        </mxCell>
        <mxCell id="yMqqP-uW__0DjXW2lb2f-241" value="이름" style="shape=partialRectangle;connectable=0;fillColor=none;top=0;left=0;bottom=0;right=0;align=left;spacingLeft=6;overflow=hidden;whiteSpace=wrap;html=1;fontFamily=Helvetica;fontSize=12;fontColor=default;labelBackgroundColor=default;" vertex="1" parent="yMqqP-uW__0DjXW2lb2f-239">
          <mxGeometry x="30" width="96.94" height="30" as="geometry">
            <mxRectangle width="96.94" height="30" as="alternateBounds" />
          </mxGeometry>
        </mxCell>
        <mxCell id="yMqqP-uW__0DjXW2lb2f-242" value="" style="shape=tableRow;horizontal=0;startSize=0;swimlaneHead=0;swimlaneBody=0;fillColor=none;collapsible=0;dropTarget=0;points=[[0,0.5],[1,0.5]];portConstraint=eastwest;top=0;left=0;right=0;bottom=0;fontFamily=Helvetica;fontSize=12;fontColor=default;labelBackgroundColor=default;" vertex="1" parent="yMqqP-uW__0DjXW2lb2f-235">
          <mxGeometry y="90" width="126.94" height="30" as="geometry" />
        </mxCell>
        <mxCell id="yMqqP-uW__0DjXW2lb2f-243" value="" style="shape=partialRectangle;connectable=0;fillColor=none;top=0;left=0;bottom=0;right=0;editable=1;overflow=hidden;whiteSpace=wrap;html=1;fontFamily=Helvetica;fontSize=12;fontColor=default;labelBackgroundColor=default;" vertex="1" parent="yMqqP-uW__0DjXW2lb2f-242">
          <mxGeometry width="30" height="30" as="geometry">
            <mxRectangle width="30" height="30" as="alternateBounds" />
          </mxGeometry>
        </mxCell>
        <mxCell id="yMqqP-uW__0DjXW2lb2f-244" value="" style="shape=partialRectangle;connectable=0;fillColor=none;top=0;left=0;bottom=0;right=0;align=left;spacingLeft=6;overflow=hidden;whiteSpace=wrap;html=1;fontFamily=Helvetica;fontSize=12;fontColor=default;labelBackgroundColor=default;" vertex="1" parent="yMqqP-uW__0DjXW2lb2f-242">
          <mxGeometry x="30" width="96.94" height="30" as="geometry">
            <mxRectangle width="96.94" height="30" as="alternateBounds" />
          </mxGeometry>
        </mxCell>
        <mxCell id="yMqqP-uW__0DjXW2lb2f-245" value="" style="shape=tableRow;horizontal=0;startSize=0;swimlaneHead=0;swimlaneBody=0;fillColor=none;collapsible=0;dropTarget=0;points=[[0,0.5],[1,0.5]];portConstraint=eastwest;top=0;left=0;right=0;bottom=0;fontFamily=Helvetica;fontSize=12;fontColor=default;labelBackgroundColor=default;" vertex="1" parent="yMqqP-uW__0DjXW2lb2f-235">
          <mxGeometry y="120" width="126.94" height="30" as="geometry" />
        </mxCell>
        <mxCell id="yMqqP-uW__0DjXW2lb2f-246" value="" style="shape=partialRectangle;connectable=0;fillColor=none;top=0;left=0;bottom=0;right=0;editable=1;overflow=hidden;whiteSpace=wrap;html=1;fontFamily=Helvetica;fontSize=12;fontColor=default;labelBackgroundColor=default;" vertex="1" parent="yMqqP-uW__0DjXW2lb2f-245">
          <mxGeometry width="30" height="30" as="geometry">
            <mxRectangle width="30" height="30" as="alternateBounds" />
          </mxGeometry>
        </mxCell>
        <mxCell id="yMqqP-uW__0DjXW2lb2f-247" value="" style="shape=partialRectangle;connectable=0;fillColor=none;top=0;left=0;bottom=0;right=0;align=left;spacingLeft=6;overflow=hidden;whiteSpace=wrap;html=1;fontFamily=Helvetica;fontSize=12;fontColor=default;labelBackgroundColor=default;" vertex="1" parent="yMqqP-uW__0DjXW2lb2f-245">
          <mxGeometry x="30" width="96.94" height="30" as="geometry">
            <mxRectangle width="96.94" height="30" as="alternateBounds" />
          </mxGeometry>
        </mxCell>
        <mxCell id="yMqqP-uW__0DjXW2lb2f-261" value="&lt;b&gt;&lt;font style=&quot;font-size: 15px;&quot;&gt;약한 개체 타입 매핑&lt;/font&gt;&lt;/b&gt;" style="text;html=1;align=center;verticalAlign=middle;resizable=0;points=[];autosize=1;strokeColor=none;fillColor=none;fontSize=12;fontFamily=Helvetica;fontColor=default;labelBackgroundColor=default;" vertex="1" parent="1">
          <mxGeometry x="-32.5" y="1913" width="151" height="30" as="geometry" />
        </mxCell>
        <mxCell id="yMqqP-uW__0DjXW2lb2f-262" value="&lt;font style=&quot;font-size: 14px;&quot;&gt;가족 엔티티는 사원 엔티티에 종속된 약한 개체&lt;/font&gt;&lt;div style=&quot;font-size: 14px;&quot;&gt;&lt;font style=&quot;font-size: 14px;&quot;&gt;가족 개체의 기본키는 사번 속성의 기본키를 외래키로 포함&lt;/font&gt;&lt;/div&gt;&lt;div style=&quot;font-size: 14px;&quot;&gt;&lt;b&gt;&lt;font style=&quot;font-size: 14px;&quot;&gt;&amp;nbsp;➡ 식별관계(Identifying Relation)&lt;/font&gt;&lt;/b&gt;&lt;/div&gt;" style="text;html=1;align=left;verticalAlign=middle;resizable=0;points=[];autosize=1;strokeColor=#666666;fillColor=#f5f5f5;fontSize=12;fontFamily=Helvetica;fontColor=#333333;labelBackgroundColor=none;" vertex="1" parent="1">
          <mxGeometry x="-24.5" y="1943" width="381" height="62" as="geometry" />
        </mxCell>
        <mxCell id="yMqqP-uW__0DjXW2lb2f-264" value="" style="verticalLabelPosition=bottom;verticalAlign=top;html=1;strokeWidth=2;shape=mxgraph.arrows2.arrow;dy=0.6;dx=40;notch=0;fontFamily=Helvetica;fontSize=12;fontColor=default;labelBackgroundColor=default;" vertex="1" parent="1">
          <mxGeometry x="404" y="2213" width="148" height="53.5" as="geometry" />
        </mxCell>
      </root>
    </mxGraphModel>
  </diagram>
  <diagram id="edXCVJPXgW3W4ykvYi4K" name="서점 연습">
    <mxGraphModel dx="1143" dy="631" grid="0" gridSize="10" guides="1" tooltips="1" connect="1" arrows="1" fold="1" page="0" pageScale="1" pageWidth="827" pageHeight="1169" math="0" shadow="0">
      <root>
        <mxCell id="0" />
        <mxCell id="1" parent="0" />
        <mxCell id="BIpsvz1Lc3xn4WC5bxPh-1" value="&lt;span style=&quot;color: rgb(29, 28, 29); font-family: Monaco, Menlo, Consolas, &amp;quot;Courier New&amp;quot;, monospace; font-variant-ligatures: none; text-align: left; white-space-collapse: preserve;&quot;&gt;[요구사항]&lt;br&gt;&lt;br&gt;마당서점은 출판사에서 도서를 공급받아 판매한다. 판매 내역은 매일 기록으로 남기며, 고객서비스와 매출 관리에 활용한댜 마당서점은 판매히는 도서의 도서번호, 도서 이름, 출판사이름, 도서단가를 주요 정보로 보유하고 있댜 또한 구매한 도서들을 납품한 출판사와 출판사 담당자이름 전화번호를 관리한댜 또한 책이 판매될 때마다 고객들의 고객이름, 주소, 전화번호를 기록하고 있다. 고객에게 판매한 도서는 판매한날, 고객별 주문금액을 추가로 관리해야 하며 고객들은 여러 번에 걸쳐 다양한 도서를 구매할 수 있다.&lt;/span&gt;" style="text;html=1;align=center;verticalAlign=middle;whiteSpace=wrap;rounded=0;fontSize=12;fontFamily=Helvetica;labelBackgroundColor=none;fillColor=#dae8fc;strokeColor=#6c8ebf;" vertex="1" parent="1">
          <mxGeometry x="-75" y="-177" width="546" height="139" as="geometry" />
        </mxCell>
        <mxCell id="VjgnsztxeeGvXW6AEftj-33" value="" style="group" vertex="1" connectable="0" parent="1">
          <mxGeometry x="-383" y="50" width="521" height="136" as="geometry" />
        </mxCell>
        <mxCell id="VjgnsztxeeGvXW6AEftj-1" value="도서" style="whiteSpace=wrap;html=1;align=center;fontFamily=Helvetica;fontSize=12;fontColor=default;labelBackgroundColor=default;" vertex="1" parent="VjgnsztxeeGvXW6AEftj-33">
          <mxGeometry x="150" y="18" width="196" height="93" as="geometry" />
        </mxCell>
        <mxCell id="VjgnsztxeeGvXW6AEftj-32" value="" style="edgeStyle=orthogonalEdgeStyle;rounded=0;orthogonalLoop=1;jettySize=auto;html=1;strokeColor=default;align=center;verticalAlign=middle;fontFamily=Helvetica;fontSize=12;fontColor=default;labelBackgroundColor=default;startSize=8;endArrow=none;endFill=0;endSize=8;" edge="1" parent="VjgnsztxeeGvXW6AEftj-33" source="VjgnsztxeeGvXW6AEftj-5" target="VjgnsztxeeGvXW6AEftj-1">
          <mxGeometry relative="1" as="geometry" />
        </mxCell>
        <mxCell id="VjgnsztxeeGvXW6AEftj-5" value="&lt;u&gt;도서번호&lt;/u&gt;" style="ellipse;whiteSpace=wrap;html=1;align=center;fontFamily=Helvetica;fontSize=12;fontColor=default;labelBackgroundColor=default;" vertex="1" parent="VjgnsztxeeGvXW6AEftj-33">
          <mxGeometry width="100" height="40" as="geometry" />
        </mxCell>
        <mxCell id="VjgnsztxeeGvXW6AEftj-8" value="" style="edgeStyle=orthogonalEdgeStyle;rounded=0;orthogonalLoop=1;jettySize=auto;html=1;strokeColor=default;align=center;verticalAlign=middle;fontFamily=Helvetica;fontSize=12;fontColor=default;labelBackgroundColor=default;startSize=8;endArrow=none;endFill=0;endSize=8;" edge="1" parent="VjgnsztxeeGvXW6AEftj-33" source="VjgnsztxeeGvXW6AEftj-6" target="VjgnsztxeeGvXW6AEftj-1">
          <mxGeometry relative="1" as="geometry" />
        </mxCell>
        <mxCell id="VjgnsztxeeGvXW6AEftj-6" value="도서이름" style="ellipse;whiteSpace=wrap;html=1;align=center;fontFamily=Helvetica;fontSize=12;fontColor=default;labelBackgroundColor=default;" vertex="1" parent="VjgnsztxeeGvXW6AEftj-33">
          <mxGeometry x="2" y="96" width="100" height="40" as="geometry" />
        </mxCell>
        <mxCell id="VjgnsztxeeGvXW6AEftj-11" value="" style="edgeStyle=orthogonalEdgeStyle;rounded=0;orthogonalLoop=1;jettySize=auto;html=1;strokeColor=default;align=center;verticalAlign=middle;fontFamily=Helvetica;fontSize=12;fontColor=default;labelBackgroundColor=default;startSize=8;endArrow=none;endFill=0;endSize=8;" edge="1" parent="VjgnsztxeeGvXW6AEftj-33" source="VjgnsztxeeGvXW6AEftj-10" target="VjgnsztxeeGvXW6AEftj-1">
          <mxGeometry relative="1" as="geometry" />
        </mxCell>
        <mxCell id="VjgnsztxeeGvXW6AEftj-10" value="도서단가" style="ellipse;whiteSpace=wrap;html=1;align=center;fontFamily=Helvetica;fontSize=12;fontColor=default;labelBackgroundColor=default;" vertex="1" parent="VjgnsztxeeGvXW6AEftj-33">
          <mxGeometry x="418" y="8" width="100" height="40" as="geometry" />
        </mxCell>
        <mxCell id="VjgnsztxeeGvXW6AEftj-13" value="" style="edgeStyle=orthogonalEdgeStyle;rounded=0;orthogonalLoop=1;jettySize=auto;html=1;strokeColor=default;align=center;verticalAlign=middle;fontFamily=Helvetica;fontSize=12;fontColor=default;labelBackgroundColor=default;startSize=8;endArrow=none;endFill=0;endSize=8;" edge="1" parent="VjgnsztxeeGvXW6AEftj-33" source="VjgnsztxeeGvXW6AEftj-12" target="VjgnsztxeeGvXW6AEftj-1">
          <mxGeometry relative="1" as="geometry" />
        </mxCell>
        <mxCell id="VjgnsztxeeGvXW6AEftj-12" value="출판사 이름" style="ellipse;whiteSpace=wrap;html=1;align=center;fontFamily=Helvetica;fontSize=12;fontColor=default;labelBackgroundColor=default;" vertex="1" parent="VjgnsztxeeGvXW6AEftj-33">
          <mxGeometry x="421" y="89" width="100" height="40" as="geometry" />
        </mxCell>
        <mxCell id="VjgnsztxeeGvXW6AEftj-35" value="" style="group" vertex="1" connectable="0" parent="1">
          <mxGeometry x="-394.5" y="297" width="519" height="130" as="geometry" />
        </mxCell>
        <mxCell id="VjgnsztxeeGvXW6AEftj-25" value="&lt;u&gt;출판사번호&lt;/u&gt;" style="ellipse;whiteSpace=wrap;html=1;align=center;fontFamily=Helvetica;fontSize=12;fontColor=default;labelBackgroundColor=default;" vertex="1" parent="VjgnsztxeeGvXW6AEftj-35">
          <mxGeometry width="100" height="40" as="geometry" />
        </mxCell>
        <mxCell id="VjgnsztxeeGvXW6AEftj-27" value="출판사이름" style="ellipse;whiteSpace=wrap;html=1;align=center;fontFamily=Helvetica;fontSize=12;fontColor=default;labelBackgroundColor=default;" vertex="1" parent="VjgnsztxeeGvXW6AEftj-35">
          <mxGeometry y="90" width="100" height="40" as="geometry" />
        </mxCell>
        <mxCell id="VjgnsztxeeGvXW6AEftj-29" value="전화번호" style="ellipse;whiteSpace=wrap;html=1;align=center;fontFamily=Helvetica;fontSize=12;fontColor=default;labelBackgroundColor=default;" vertex="1" parent="VjgnsztxeeGvXW6AEftj-35">
          <mxGeometry x="416" y="2" width="100" height="40" as="geometry" />
        </mxCell>
        <mxCell id="VjgnsztxeeGvXW6AEftj-31" value="담당자이름" style="ellipse;whiteSpace=wrap;html=1;align=center;fontFamily=Helvetica;fontSize=12;fontColor=default;labelBackgroundColor=default;" vertex="1" parent="VjgnsztxeeGvXW6AEftj-35">
          <mxGeometry x="419" y="83" width="100" height="40" as="geometry" />
        </mxCell>
        <mxCell id="VjgnsztxeeGvXW6AEftj-34" value="" style="group" vertex="1" connectable="0" parent="VjgnsztxeeGvXW6AEftj-35">
          <mxGeometry x="148" y="8.5" width="196" height="93" as="geometry" />
        </mxCell>
        <mxCell id="VjgnsztxeeGvXW6AEftj-23" value="출판사" style="whiteSpace=wrap;html=1;align=center;fontFamily=Helvetica;fontSize=12;fontColor=default;labelBackgroundColor=default;" vertex="1" parent="VjgnsztxeeGvXW6AEftj-34">
          <mxGeometry width="196" height="93" as="geometry" />
        </mxCell>
        <mxCell id="VjgnsztxeeGvXW6AEftj-38" value="" style="endArrow=none;html=1;rounded=0;strokeColor=default;align=center;verticalAlign=middle;fontFamily=Helvetica;fontSize=12;fontColor=default;labelBackgroundColor=default;edgeStyle=orthogonalEdgeStyle;startSize=8;endSize=8;" edge="1" parent="VjgnsztxeeGvXW6AEftj-34" target="VjgnsztxeeGvXW6AEftj-1">
          <mxGeometry relative="1" as="geometry">
            <mxPoint x="83.5" as="sourcePoint" />
            <mxPoint x="243.5" as="targetPoint" />
          </mxGeometry>
        </mxCell>
        <mxCell id="VjgnsztxeeGvXW6AEftj-39" value="N" style="resizable=0;html=1;whiteSpace=wrap;align=right;verticalAlign=bottom;fontFamily=Helvetica;fontSize=12;fontColor=default;labelBackgroundColor=default;" connectable="0" vertex="1" parent="VjgnsztxeeGvXW6AEftj-38">
          <mxGeometry x="1" relative="1" as="geometry">
            <mxPoint x="6" y="25" as="offset" />
          </mxGeometry>
        </mxCell>
        <mxCell id="VjgnsztxeeGvXW6AEftj-40" value="1" style="resizable=0;html=1;whiteSpace=wrap;align=right;verticalAlign=bottom;fontFamily=Helvetica;fontSize=12;fontColor=default;labelBackgroundColor=default;" connectable="0" vertex="1" parent="VjgnsztxeeGvXW6AEftj-34">
          <mxGeometry x="127.5" y="-108.49826871881805" as="geometry">
            <mxPoint x="-38" y="101" as="offset" />
          </mxGeometry>
        </mxCell>
        <mxCell id="VjgnsztxeeGvXW6AEftj-24" value="" style="edgeStyle=orthogonalEdgeStyle;rounded=0;orthogonalLoop=1;jettySize=auto;html=1;strokeColor=default;align=center;verticalAlign=middle;fontFamily=Helvetica;fontSize=12;fontColor=default;labelBackgroundColor=default;startSize=8;endArrow=none;endFill=0;endSize=8;" edge="1" parent="VjgnsztxeeGvXW6AEftj-35" source="VjgnsztxeeGvXW6AEftj-25" target="VjgnsztxeeGvXW6AEftj-23">
          <mxGeometry relative="1" as="geometry" />
        </mxCell>
        <mxCell id="VjgnsztxeeGvXW6AEftj-26" value="" style="edgeStyle=orthogonalEdgeStyle;rounded=0;orthogonalLoop=1;jettySize=auto;html=1;strokeColor=default;align=center;verticalAlign=middle;fontFamily=Helvetica;fontSize=12;fontColor=default;labelBackgroundColor=default;startSize=8;endArrow=none;endFill=0;endSize=8;" edge="1" parent="VjgnsztxeeGvXW6AEftj-35" source="VjgnsztxeeGvXW6AEftj-27" target="VjgnsztxeeGvXW6AEftj-23">
          <mxGeometry relative="1" as="geometry" />
        </mxCell>
        <mxCell id="VjgnsztxeeGvXW6AEftj-28" value="" style="edgeStyle=orthogonalEdgeStyle;rounded=0;orthogonalLoop=1;jettySize=auto;html=1;strokeColor=default;align=center;verticalAlign=middle;fontFamily=Helvetica;fontSize=12;fontColor=default;labelBackgroundColor=default;startSize=8;endArrow=none;endFill=0;endSize=8;" edge="1" parent="VjgnsztxeeGvXW6AEftj-35" source="VjgnsztxeeGvXW6AEftj-29" target="VjgnsztxeeGvXW6AEftj-23">
          <mxGeometry relative="1" as="geometry" />
        </mxCell>
        <mxCell id="VjgnsztxeeGvXW6AEftj-30" value="" style="edgeStyle=orthogonalEdgeStyle;rounded=0;orthogonalLoop=1;jettySize=auto;html=1;strokeColor=default;align=center;verticalAlign=middle;fontFamily=Helvetica;fontSize=12;fontColor=default;labelBackgroundColor=default;startSize=8;endArrow=none;endFill=0;endSize=8;" edge="1" parent="VjgnsztxeeGvXW6AEftj-35" source="VjgnsztxeeGvXW6AEftj-31" target="VjgnsztxeeGvXW6AEftj-23">
          <mxGeometry relative="1" as="geometry" />
        </mxCell>
        <mxCell id="VjgnsztxeeGvXW6AEftj-36" value="" style="group" vertex="1" connectable="0" parent="1">
          <mxGeometry x="513" y="46.5" width="521" height="136" as="geometry" />
        </mxCell>
        <mxCell id="VjgnsztxeeGvXW6AEftj-14" value="고객" style="whiteSpace=wrap;html=1;align=center;fontFamily=Helvetica;fontSize=12;fontColor=default;labelBackgroundColor=default;" vertex="1" parent="VjgnsztxeeGvXW6AEftj-36">
          <mxGeometry x="150" y="14.5" width="196" height="93" as="geometry" />
        </mxCell>
        <mxCell id="VjgnsztxeeGvXW6AEftj-15" value="" style="edgeStyle=orthogonalEdgeStyle;rounded=0;orthogonalLoop=1;jettySize=auto;html=1;strokeColor=default;align=center;verticalAlign=middle;fontFamily=Helvetica;fontSize=12;fontColor=default;labelBackgroundColor=default;startSize=8;endArrow=none;endFill=0;endSize=8;" edge="1" parent="VjgnsztxeeGvXW6AEftj-36" source="VjgnsztxeeGvXW6AEftj-16" target="VjgnsztxeeGvXW6AEftj-14">
          <mxGeometry relative="1" as="geometry" />
        </mxCell>
        <mxCell id="VjgnsztxeeGvXW6AEftj-16" value="고객번호" style="ellipse;whiteSpace=wrap;html=1;align=center;fontFamily=Helvetica;fontSize=12;fontColor=default;labelBackgroundColor=default;" vertex="1" parent="VjgnsztxeeGvXW6AEftj-36">
          <mxGeometry width="100" height="40" as="geometry" />
        </mxCell>
        <mxCell id="VjgnsztxeeGvXW6AEftj-17" value="" style="edgeStyle=orthogonalEdgeStyle;rounded=0;orthogonalLoop=1;jettySize=auto;html=1;strokeColor=default;align=center;verticalAlign=middle;fontFamily=Helvetica;fontSize=12;fontColor=default;labelBackgroundColor=default;startSize=8;endArrow=none;endFill=0;endSize=8;" edge="1" parent="VjgnsztxeeGvXW6AEftj-36" source="VjgnsztxeeGvXW6AEftj-18" target="VjgnsztxeeGvXW6AEftj-14">
          <mxGeometry relative="1" as="geometry" />
        </mxCell>
        <mxCell id="VjgnsztxeeGvXW6AEftj-18" value="고객이름" style="ellipse;whiteSpace=wrap;html=1;align=center;fontFamily=Helvetica;fontSize=12;fontColor=default;labelBackgroundColor=default;" vertex="1" parent="VjgnsztxeeGvXW6AEftj-36">
          <mxGeometry x="2" y="96" width="100" height="40" as="geometry" />
        </mxCell>
        <mxCell id="VjgnsztxeeGvXW6AEftj-19" value="" style="edgeStyle=orthogonalEdgeStyle;rounded=0;orthogonalLoop=1;jettySize=auto;html=1;strokeColor=default;align=center;verticalAlign=middle;fontFamily=Helvetica;fontSize=12;fontColor=default;labelBackgroundColor=default;startSize=8;endArrow=none;endFill=0;endSize=8;" edge="1" parent="VjgnsztxeeGvXW6AEftj-36" source="VjgnsztxeeGvXW6AEftj-20" target="VjgnsztxeeGvXW6AEftj-14">
          <mxGeometry relative="1" as="geometry" />
        </mxCell>
        <mxCell id="VjgnsztxeeGvXW6AEftj-20" value="전화번호" style="ellipse;whiteSpace=wrap;html=1;align=center;fontFamily=Helvetica;fontSize=12;fontColor=default;labelBackgroundColor=default;" vertex="1" parent="VjgnsztxeeGvXW6AEftj-36">
          <mxGeometry x="418" y="8" width="100" height="40" as="geometry" />
        </mxCell>
        <mxCell id="VjgnsztxeeGvXW6AEftj-21" value="" style="edgeStyle=orthogonalEdgeStyle;rounded=0;orthogonalLoop=1;jettySize=auto;html=1;strokeColor=default;align=center;verticalAlign=middle;fontFamily=Helvetica;fontSize=12;fontColor=default;labelBackgroundColor=default;startSize=8;endArrow=none;endFill=0;endSize=8;" edge="1" parent="VjgnsztxeeGvXW6AEftj-36" source="VjgnsztxeeGvXW6AEftj-22" target="VjgnsztxeeGvXW6AEftj-14">
          <mxGeometry relative="1" as="geometry" />
        </mxCell>
        <mxCell id="VjgnsztxeeGvXW6AEftj-22" value="주소" style="ellipse;whiteSpace=wrap;html=1;align=center;fontFamily=Helvetica;fontSize=12;fontColor=default;labelBackgroundColor=default;" vertex="1" parent="VjgnsztxeeGvXW6AEftj-36">
          <mxGeometry x="421" y="89" width="100" height="40" as="geometry" />
        </mxCell>
        <mxCell id="VjgnsztxeeGvXW6AEftj-37" value="- 도서(N)와 출판사(1)의 관계 : 1:N 관계&lt;div&gt;- 고객과 도서의 관계 : M:N 관계&lt;/div&gt;&lt;div&gt;- 도서를 고객이 주문하는 내용을 기록으로 남겨야 함&lt;/div&gt;" style="text;html=1;align=left;verticalAlign=middle;resizable=0;points=[];autosize=1;strokeColor=#666666;fillColor=#f5f5f5;fontSize=12;fontFamily=Helvetica;fontColor=#333333;labelBackgroundColor=none;labelBorderColor=none;" vertex="1" parent="1">
          <mxGeometry x="-433" y="492" width="297" height="55" as="geometry" />
        </mxCell>
        <mxCell id="VjgnsztxeeGvXW6AEftj-41" value="주문" style="shape=rhombus;perimeter=rhombusPerimeter;whiteSpace=wrap;html=1;align=center;fontFamily=Helvetica;fontSize=12;fontColor=default;labelBackgroundColor=default;" vertex="1" parent="1">
          <mxGeometry x="212" y="54.5" width="226" height="124" as="geometry" />
        </mxCell>
        <mxCell id="VjgnsztxeeGvXW6AEftj-45" value="" style="endArrow=none;html=1;rounded=0;strokeColor=default;align=center;verticalAlign=middle;fontFamily=Helvetica;fontSize=12;fontColor=default;labelBackgroundColor=default;edgeStyle=orthogonalEdgeStyle;startSize=8;endSize=8;entryX=0.333;entryY=0.809;entryDx=0;entryDy=0;exitX=0.705;exitY=1.001;exitDx=0;exitDy=0;exitPerimeter=0;entryPerimeter=0;" edge="1" parent="1" source="VjgnsztxeeGvXW6AEftj-1" target="VjgnsztxeeGvXW6AEftj-41">
          <mxGeometry relative="1" as="geometry">
            <mxPoint x="-24" y="184" as="sourcePoint" />
            <mxPoint x="284.5000000000002" y="172.01999999999998" as="targetPoint" />
            <Array as="points">
              <mxPoint x="-97" y="161" />
              <mxPoint x="-97" y="224" />
              <mxPoint x="285" y="224" />
              <mxPoint x="285" y="156" />
              <mxPoint x="283" y="156" />
              <mxPoint x="283" y="155" />
            </Array>
          </mxGeometry>
        </mxCell>
        <mxCell id="VjgnsztxeeGvXW6AEftj-46" value="N" style="resizable=0;html=1;whiteSpace=wrap;align=right;verticalAlign=bottom;fontFamily=Helvetica;fontSize=12;fontColor=default;labelBackgroundColor=default;" connectable="0" vertex="1" parent="VjgnsztxeeGvXW6AEftj-45">
          <mxGeometry x="1" relative="1" as="geometry">
            <mxPoint x="-373" y="30" as="offset" />
          </mxGeometry>
        </mxCell>
        <mxCell id="VjgnsztxeeGvXW6AEftj-48" value="" style="endArrow=none;html=1;rounded=0;strokeColor=default;align=center;verticalAlign=middle;fontFamily=Helvetica;fontSize=12;fontColor=default;labelBackgroundColor=default;edgeStyle=orthogonalEdgeStyle;startSize=8;endSize=8;entryX=0.448;entryY=1.013;entryDx=0;entryDy=0;exitX=0.705;exitY=1.001;exitDx=0;exitDy=0;exitPerimeter=0;entryPerimeter=0;" edge="1" parent="1" target="VjgnsztxeeGvXW6AEftj-14">
          <mxGeometry relative="1" as="geometry">
            <mxPoint x="369" y="156" as="sourcePoint" />
            <mxPoint x="751" y="150" as="targetPoint" />
            <Array as="points">
              <mxPoint x="367" y="156" />
              <mxPoint x="367" y="219" />
              <mxPoint x="749" y="219" />
              <mxPoint x="749" y="154" />
              <mxPoint x="747" y="154" />
              <mxPoint x="747" y="155" />
            </Array>
          </mxGeometry>
        </mxCell>
        <mxCell id="VjgnsztxeeGvXW6AEftj-49" value="N" style="resizable=0;html=1;whiteSpace=wrap;align=right;verticalAlign=bottom;fontFamily=Helvetica;fontSize=12;fontColor=default;labelBackgroundColor=default;" connectable="0" vertex="1" parent="VjgnsztxeeGvXW6AEftj-48">
          <mxGeometry x="1" relative="1" as="geometry">
            <mxPoint x="-377" y="31" as="offset" />
          </mxGeometry>
        </mxCell>
        <mxCell id="VjgnsztxeeGvXW6AEftj-50" value="M" style="resizable=0;html=1;whiteSpace=wrap;align=right;verticalAlign=bottom;fontFamily=Helvetica;fontSize=12;fontColor=default;labelBackgroundColor=default;" connectable="0" vertex="1" parent="1">
          <mxGeometry x="754.9990560585982" y="182.499110562021" as="geometry" />
        </mxCell>
        <mxCell id="VjgnsztxeeGvXW6AEftj-51" value="판매한 날&lt;div&gt;주문한 금액&lt;/div&gt;" style="text;html=1;align=center;verticalAlign=middle;resizable=0;points=[];autosize=1;strokeColor=none;fillColor=none;fontSize=12;fontFamily=Helvetica;fontColor=default;labelBackgroundColor=default;" vertex="1" parent="1">
          <mxGeometry x="284.5" y="175.5" width="81" height="41" as="geometry" />
        </mxCell>
      </root>
    </mxGraphModel>
  </diagram>
</mxfile>
